<svg width="845" height="289" viewBox="0 0 845 289" fill="none" xmlns="http://www.w3.org/2000/svg">
<rect x="13" y="228" width="820" height="56" rx="10" fill="#FCF8F5"/>
<path d="M41.7623 270.56C41.7623 271.067 41.6423 271.44 41.4023 271.68C41.189 271.893 40.829 272 40.3223 272H34.2423C33.7357 272 33.3623 271.893 33.1223 271.68C32.909 271.44 32.8023 271.067 32.8023 270.56V266.28C32.8023 265.053 32.909 264.133 33.1223 263.52C33.3357 262.907 33.7357 262.187 34.3223 261.36L37.5623 257L34.3223 252.64C33.709 251.813 33.2957 251.093 33.0823 250.48C32.8957 249.867 32.8023 248.947 32.8023 247.72V244.64C32.8023 244.133 32.909 243.773 33.1223 243.56C33.3623 243.32 33.7357 243.2 34.2423 243.2H40.4023C40.909 243.2 41.269 243.32 41.4823 243.56C41.7223 243.773 41.8423 244.133 41.8423 244.64V247.4C41.8423 247.667 41.8557 247.947 41.8823 248.24C41.909 248.533 42.0157 248.813 42.2023 249.08L43.9623 251.6C44.0957 251.813 44.229 251.987 44.3623 252.12C44.5223 252.227 44.709 252.28 44.9223 252.28H45.4023C45.6157 252.28 45.789 252.227 45.9223 252.12C46.0557 251.987 46.2023 251.813 46.3623 251.6L48.1623 249.08C48.349 248.813 48.4557 248.533 48.4823 248.24C48.509 247.947 48.5223 247.667 48.5223 247.4V244.64C48.5223 244.133 48.629 243.773 48.8423 243.56C49.0823 243.32 49.4557 243.2 49.9623 243.2H56.0423C56.549 243.2 56.909 243.32 57.1223 243.56C57.3623 243.773 57.4823 244.133 57.4823 244.64V247.72C57.4823 248.947 57.3757 249.867 57.1623 250.48C56.949 251.093 56.549 251.813 55.9623 252.64L52.7223 257.04L55.9623 261.36C56.5757 262.187 56.9757 262.907 57.1623 263.52C57.3757 264.133 57.4823 265.053 57.4823 266.28V270.56C57.4823 271.067 57.3623 271.44 57.1223 271.68C56.909 271.893 56.549 272 56.0423 272H49.9623C49.4557 272 49.0823 271.893 48.8423 271.68C48.629 271.44 48.5223 271.067 48.5223 270.56V266.6C48.5223 266.333 48.509 266.053 48.4823 265.76C48.4557 265.467 48.349 265.187 48.1623 264.92L46.4023 262.4C46.2423 262.16 46.0957 261.987 45.9623 261.88C45.829 261.773 45.6557 261.72 45.4423 261.72H44.8823C44.669 261.72 44.4957 261.773 44.3623 261.88C44.229 261.987 44.0823 262.16 43.9223 262.4L42.1223 264.92C41.9357 265.187 41.829 265.467 41.8023 265.76C41.7757 266.053 41.7623 266.333 41.7623 266.6V270.56ZM75.2545 270.56C75.2545 271.067 75.1345 271.44 74.8945 271.68C74.6812 271.893 74.3212 272 73.8145 272H67.7345C67.2279 272 66.8545 271.893 66.6145 271.68C66.4012 271.44 66.2945 271.067 66.2945 270.56V266.28C66.2945 265.053 66.4012 264.133 66.6145 263.52C66.8279 262.907 67.2279 262.187 67.8145 261.36L71.0545 257L67.8145 252.64C67.2012 251.813 66.7879 251.093 66.5745 250.48C66.3879 249.867 66.2945 248.947 66.2945 247.72V244.64C66.2945 244.133 66.4012 243.773 66.6145 243.56C66.8545 243.32 67.2279 243.2 67.7345 243.2H73.8945C74.4012 243.2 74.7612 243.32 74.9745 243.56C75.2145 243.773 75.3345 244.133 75.3345 244.64V247.4C75.3345 247.667 75.3479 247.947 75.3745 248.24C75.4012 248.533 75.5079 248.813 75.6945 249.08L77.4545 251.6C77.5879 251.813 77.7212 251.987 77.8545 252.12C78.0145 252.227 78.2012 252.28 78.4145 252.28H78.8945C79.1079 252.28 79.2812 252.227 79.4145 252.12C79.5479 251.987 79.6945 251.813 79.8545 251.6L81.6545 249.08C81.8412 248.813 81.9479 248.533 81.9745 248.24C82.0012 247.947 82.0145 247.667 82.0145 247.4V244.64C82.0145 244.133 82.1212 243.773 82.3345 243.56C82.5745 243.32 82.9479 243.2 83.4545 243.2H89.5345C90.0412 243.2 90.4012 243.32 90.6145 243.56C90.8545 243.773 90.9745 244.133 90.9745 244.64V247.72C90.9745 248.947 90.8679 249.867 90.6545 250.48C90.4412 251.093 90.0412 251.813 89.4545 252.64L86.2145 257.04L89.4545 261.36C90.0679 262.187 90.4679 262.907 90.6545 263.52C90.8679 264.133 90.9745 265.053 90.9745 266.28V270.56C90.9745 271.067 90.8545 271.44 90.6145 271.68C90.4012 271.893 90.0412 272 89.5345 272H83.4545C82.9479 272 82.5745 271.893 82.3345 271.68C82.1212 271.44 82.0145 271.067 82.0145 270.56V266.6C82.0145 266.333 82.0012 266.053 81.9745 265.76C81.9479 265.467 81.8412 265.187 81.6545 264.92L79.8945 262.4C79.7345 262.16 79.5879 261.987 79.4545 261.88C79.3212 261.773 79.1479 261.72 78.9345 261.72H78.3745C78.1612 261.72 77.9879 261.773 77.8545 261.88C77.7212 261.987 77.5745 262.16 77.4145 262.4L75.6145 264.92C75.4279 265.187 75.3212 265.467 75.2945 265.76C75.2679 266.053 75.2545 266.333 75.2545 266.6V270.56ZM108.747 270.56C108.747 271.067 108.627 271.44 108.387 271.68C108.173 271.893 107.813 272 107.307 272H101.227C100.72 272 100.347 271.893 100.107 271.68C99.8934 271.44 99.7867 271.067 99.7867 270.56V266.28C99.7867 265.053 99.8934 264.133 100.107 263.52C100.32 262.907 100.72 262.187 101.307 261.36L104.547 257L101.307 252.64C100.693 251.813 100.28 251.093 100.067 250.48C99.8801 249.867 99.7867 248.947 99.7867 247.72V244.64C99.7867 244.133 99.8934 243.773 100.107 243.56C100.347 243.32 100.72 243.2 101.227 243.2H107.387C107.893 243.2 108.253 243.32 108.467 243.56C108.707 243.773 108.827 244.133 108.827 244.64V247.4C108.827 247.667 108.84 247.947 108.867 248.24C108.893 248.533 109 248.813 109.187 249.08L110.947 251.6C111.08 251.813 111.213 251.987 111.347 252.12C111.507 252.227 111.693 252.28 111.907 252.28H112.387C112.6 252.28 112.773 252.227 112.907 252.12C113.04 251.987 113.187 251.813 113.347 251.6L115.147 249.08C115.333 248.813 115.44 248.533 115.467 248.24C115.493 247.947 115.507 247.667 115.507 247.4V244.64C115.507 244.133 115.613 243.773 115.827 243.56C116.067 243.32 116.44 243.2 116.947 243.2H123.027C123.533 243.2 123.893 243.32 124.107 243.56C124.347 243.773 124.467 244.133 124.467 244.64V247.72C124.467 248.947 124.36 249.867 124.147 250.48C123.933 251.093 123.533 251.813 122.947 252.64L119.707 257.04L122.947 261.36C123.56 262.187 123.96 262.907 124.147 263.52C124.36 264.133 124.467 265.053 124.467 266.28V270.56C124.467 271.067 124.347 271.44 124.107 271.68C123.893 271.893 123.533 272 123.027 272H116.947C116.44 272 116.067 271.893 115.827 271.68C115.613 271.44 115.507 271.067 115.507 270.56V266.6C115.507 266.333 115.493 266.053 115.467 265.76C115.44 265.467 115.333 265.187 115.147 264.92L113.387 262.4C113.227 262.16 113.08 261.987 112.947 261.88C112.813 261.773 112.64 261.72 112.427 261.72H111.867C111.653 261.72 111.48 261.773 111.347 261.88C111.213 261.987 111.067 262.16 110.907 262.4L109.107 264.92C108.92 265.187 108.813 265.467 108.787 265.76C108.76 266.053 108.747 266.333 108.747 266.6V270.56ZM150.484 272H140.084C139.577 272 139.15 271.907 138.804 271.72C138.484 271.533 138.23 271.187 138.044 270.68L134.124 260.88C133.884 260.293 133.684 259.787 133.524 259.36C133.364 258.907 133.23 258.48 133.124 258.08C133.017 257.68 132.937 257.267 132.884 256.84C132.857 256.387 132.844 255.84 132.844 255.2V244.64C132.844 244.133 132.95 243.773 133.164 243.56C133.404 243.32 133.777 243.2 134.284 243.2H140.644C141.15 243.2 141.537 243.32 141.804 243.56C142.07 243.773 142.204 244.133 142.204 244.64V255.68C142.204 255.947 142.23 256.213 142.284 256.48C142.337 256.747 142.417 257.027 142.524 257.32L144.404 262.92C144.484 263.187 144.577 263.373 144.684 263.48C144.79 263.56 144.95 263.6 145.164 263.6H145.604C145.817 263.6 145.977 263.56 146.084 263.48C146.19 263.373 146.284 263.187 146.364 262.92L148.244 257.28C148.35 256.987 148.43 256.707 148.484 256.44C148.537 256.173 148.564 255.907 148.564 255.64V244.64C148.564 244.133 148.67 243.773 148.884 243.56C149.124 243.32 149.497 243.2 150.004 243.2H156.284C156.79 243.2 157.15 243.32 157.364 243.56C157.604 243.773 157.724 244.133 157.724 244.64V255.2C157.724 255.84 157.697 256.387 157.644 256.84C157.617 257.267 157.55 257.68 157.444 258.08C157.337 258.48 157.204 258.907 157.044 259.36C156.884 259.787 156.684 260.293 156.444 260.88L152.524 270.68C152.337 271.187 152.07 271.533 151.724 271.72C151.404 271.907 150.99 272 150.484 272ZM167.462 272C166.956 272 166.582 271.893 166.342 271.68C166.129 271.44 166.022 271.067 166.022 270.56V265.8C166.022 265.293 166.129 264.933 166.342 264.72C166.582 264.48 166.956 264.36 167.462 264.36H171.422V250.92H167.462C166.956 250.92 166.582 250.813 166.342 250.6C166.129 250.36 166.022 249.987 166.022 249.48V244.64C166.022 244.133 166.129 243.773 166.342 243.56C166.582 243.32 166.956 243.2 167.462 243.2H184.502C185.009 243.2 185.369 243.32 185.582 243.56C185.822 243.773 185.942 244.133 185.942 244.64V249.48C185.942 249.987 185.822 250.36 185.582 250.6C185.369 250.813 185.009 250.92 184.502 250.92H180.622V264.36H184.502C185.009 264.36 185.369 264.48 185.582 264.72C185.822 264.933 185.942 265.293 185.942 265.8V270.56C185.942 271.067 185.822 271.44 185.582 271.68C185.369 271.893 185.009 272 184.502 272H167.462ZM221.225 272H208.585C208.079 272 207.705 271.893 207.465 271.68C207.252 271.44 207.145 271.067 207.145 270.56V265.88C207.145 265.373 207.252 265.013 207.465 264.8C207.705 264.56 208.079 264.44 208.585 264.44H219.345C219.692 264.44 219.945 264.333 220.105 264.12C220.292 263.88 220.385 263.6 220.385 263.28C220.385 262.827 220.292 262.493 220.105 262.28C219.945 262.067 219.692 261.947 219.345 261.92L213.345 261.08C211.479 260.813 209.972 260.2 208.825 259.24C207.705 258.28 207.145 256.68 207.145 254.44V250.24C207.145 247.973 207.879 246.24 209.345 245.04C210.812 243.813 212.839 243.2 215.425 243.2H226.625C227.132 243.2 227.492 243.32 227.705 243.56C227.945 243.773 228.065 244.133 228.065 244.64V249.4C228.065 249.907 227.945 250.28 227.705 250.52C227.492 250.733 227.132 250.84 226.625 250.84H217.305C216.959 250.84 216.692 250.96 216.505 251.2C216.319 251.413 216.225 251.693 216.225 252.04C216.225 252.387 216.319 252.68 216.505 252.92C216.692 253.16 216.959 253.293 217.305 253.32L223.265 254.12C225.132 254.387 226.639 255 227.785 255.96C228.932 256.92 229.505 258.52 229.505 260.76V264.96C229.505 267.227 228.759 268.973 227.265 270.2C225.799 271.4 223.785 272 221.225 272ZM257.881 272H239.321C238.814 272 238.441 271.893 238.201 271.68C237.988 271.44 237.881 271.067 237.881 270.56V244.64C237.881 244.133 237.988 243.773 238.201 243.56C238.441 243.32 238.814 243.2 239.321 243.2H257.881C258.388 243.2 258.748 243.32 258.961 243.56C259.201 243.773 259.321 244.133 259.321 244.64V249.32C259.321 249.827 259.201 250.2 258.961 250.44C258.748 250.653 258.388 250.76 257.881 250.76H246.841V253.84H254.641C255.148 253.84 255.508 253.96 255.721 254.2C255.961 254.413 256.081 254.773 256.081 255.28V259.56C256.081 260.067 255.961 260.44 255.721 260.68C255.508 260.893 255.148 261 254.641 261H246.841V264.44H257.881C258.388 264.44 258.748 264.56 258.961 264.8C259.201 265.013 259.321 265.373 259.321 265.88V270.56C259.321 271.067 259.201 271.44 258.961 271.68C258.748 271.893 258.388 272 257.881 272ZM275.453 272H269.493C268.986 272 268.613 271.893 268.373 271.68C268.16 271.44 268.053 271.067 268.053 270.56V244.64C268.053 244.133 268.16 243.773 268.373 243.56C268.613 243.32 268.986 243.2 269.493 243.2H275.933C276.36 243.2 276.706 243.293 276.973 243.48C277.266 243.667 277.533 243.973 277.773 244.4L281.373 250.92C281.506 251.16 281.613 251.333 281.693 251.44C281.8 251.547 281.933 251.6 282.093 251.6H282.453C282.613 251.6 282.733 251.547 282.813 251.44C282.92 251.333 283.04 251.16 283.173 250.92L286.733 244.4C286.973 243.973 287.226 243.667 287.493 243.48C287.786 243.293 288.146 243.2 288.573 243.2H295.053C295.56 243.2 295.92 243.32 296.133 243.56C296.373 243.773 296.493 244.133 296.493 244.64V270.56C296.493 271.067 296.373 271.44 296.133 271.68C295.92 271.893 295.56 272 295.053 272H288.893C288.386 272 288.013 271.893 287.773 271.68C287.56 271.44 287.453 271.067 287.453 270.56V256.48L285.093 260.84C284.853 261.293 284.56 261.627 284.213 261.84C283.893 262.027 283.48 262.12 282.973 262.12H281.373C280.866 262.12 280.44 262.027 280.093 261.84C279.773 261.627 279.493 261.293 279.253 260.84L276.893 256.48V270.56C276.893 271.067 276.773 271.44 276.533 271.68C276.32 271.893 275.96 272 275.453 272ZM316.438 251.6L314.558 257.68H320.838L318.958 251.6C318.852 251.36 318.732 251.187 318.598 251.08C318.492 250.973 318.358 250.92 318.198 250.92H317.198C317.038 250.92 316.892 250.973 316.758 251.08C316.652 251.187 316.545 251.36 316.438 251.6ZM314.158 270.56C314.158 271.067 314.038 271.44 313.798 271.68C313.585 271.893 313.225 272 312.718 272H306.838C306.332 272 305.958 271.893 305.718 271.68C305.505 271.44 305.398 271.067 305.398 270.56V260C305.398 259.2 305.518 258.28 305.758 257.24C306.025 256.2 306.425 254.987 306.958 253.6L310.438 244.52C310.598 244.067 310.838 243.733 311.158 243.52C311.505 243.307 311.945 243.2 312.478 243.2H323.238C323.745 243.2 324.158 243.307 324.478 243.52C324.825 243.733 325.078 244.067 325.238 244.52L328.718 253.6C329.252 254.987 329.638 256.2 329.878 257.24C330.145 258.28 330.278 259.2 330.278 260V270.56C330.278 271.067 330.158 271.44 329.918 271.68C329.705 271.893 329.345 272 328.838 272H322.798C322.265 272 321.865 271.893 321.598 271.68C321.358 271.44 321.238 271.067 321.238 270.56V264.96H314.158V270.56ZM346.657 272H340.657C340.15 272 339.777 271.893 339.537 271.68C339.324 271.44 339.217 271.067 339.217 270.56V244.64C339.217 244.133 339.324 243.773 339.537 243.56C339.777 243.32 340.15 243.2 340.657 243.2H344.817C345.324 243.2 345.75 243.28 346.097 243.44C346.47 243.6 346.83 243.88 347.177 244.28L354.937 253.16V244.64C354.937 244.133 355.044 243.773 355.257 243.56C355.497 243.32 355.87 243.2 356.377 243.2H362.377C362.884 243.2 363.244 243.32 363.457 243.56C363.697 243.773 363.817 244.133 363.817 244.64V270.56C363.817 271.067 363.697 271.44 363.457 271.68C363.244 271.893 362.884 272 362.377 272H356.377C355.87 272 355.497 271.893 355.257 271.68C355.044 271.44 354.937 271.067 354.937 270.56V265.64L348.097 257.36V270.56C348.097 271.067 347.977 271.44 347.737 271.68C347.524 271.893 347.164 272 346.657 272ZM383.774 251.6L381.894 257.68H388.174L386.294 251.6C386.188 251.36 386.068 251.187 385.934 251.08C385.828 250.973 385.694 250.92 385.534 250.92H384.534C384.374 250.92 384.228 250.973 384.094 251.08C383.988 251.187 383.881 251.36 383.774 251.6ZM381.494 270.56C381.494 271.067 381.374 271.44 381.134 271.68C380.921 271.893 380.561 272 380.054 272H374.174C373.668 272 373.294 271.893 373.054 271.68C372.841 271.44 372.734 271.067 372.734 270.56V260C372.734 259.2 372.854 258.28 373.094 257.24C373.361 256.2 373.761 254.987 374.294 253.6L377.774 244.52C377.934 244.067 378.174 243.733 378.494 243.52C378.841 243.307 379.281 243.2 379.814 243.2H390.574C391.081 243.2 391.494 243.307 391.814 243.52C392.161 243.733 392.414 244.067 392.574 244.52L396.054 253.6C396.588 254.987 396.974 256.2 397.214 257.24C397.481 258.28 397.614 259.2 397.614 260V270.56C397.614 271.067 397.494 271.44 397.254 271.68C397.041 271.893 396.681 272 396.174 272H390.134C389.601 272 389.201 271.893 388.934 271.68C388.694 271.44 388.574 271.067 388.574 270.56V264.96H381.494V270.56ZM434.262 272H420.782C420.275 272 419.902 271.893 419.662 271.68C419.449 271.44 419.342 271.067 419.342 270.56V244.64C419.342 244.133 419.449 243.773 419.662 243.56C419.902 243.32 420.275 243.2 420.782 243.2H434.262C437.595 243.2 440.062 243.867 441.662 245.2C443.289 246.533 444.102 248.587 444.102 251.36V263.84C444.102 266.613 443.289 268.667 441.662 270C440.062 271.333 437.595 272 434.262 272ZM428.422 250.84V264.44H433.182C433.822 264.44 434.289 264.28 434.582 263.96C434.902 263.64 435.062 263.147 435.062 262.48V252.76C435.062 252.093 434.902 251.613 434.582 251.32C434.289 251 433.822 250.84 433.182 250.84H428.422ZM463.626 251.6L461.746 257.68H468.026L466.146 251.6C466.039 251.36 465.919 251.187 465.786 251.08C465.679 250.973 465.546 250.92 465.386 250.92H464.386C464.226 250.92 464.079 250.973 463.946 251.08C463.839 251.187 463.732 251.36 463.626 251.6ZM461.346 270.56C461.346 271.067 461.226 271.44 460.986 271.68C460.772 271.893 460.412 272 459.906 272H454.026C453.519 272 453.146 271.893 452.906 271.68C452.692 271.44 452.586 271.067 452.586 270.56V260C452.586 259.2 452.706 258.28 452.946 257.24C453.212 256.2 453.612 254.987 454.146 253.6L457.626 244.52C457.786 244.067 458.026 243.733 458.346 243.52C458.692 243.307 459.132 243.2 459.666 243.2H470.426C470.932 243.2 471.346 243.307 471.666 243.52C472.012 243.733 472.266 244.067 472.426 244.52L475.906 253.6C476.439 254.987 476.826 256.2 477.066 257.24C477.332 258.28 477.466 259.2 477.466 260V270.56C477.466 271.067 477.346 271.44 477.106 271.68C476.892 271.893 476.532 272 476.026 272H469.986C469.452 272 469.052 271.893 468.786 271.68C468.546 271.44 468.426 271.067 468.426 270.56V264.96H461.346V270.56ZM518.354 272H508.594C505.26 272 502.78 271.333 501.154 270C499.554 268.667 498.754 266.613 498.754 263.84V251.4C498.754 248.627 499.554 246.573 501.154 245.24C502.78 243.88 505.26 243.2 508.594 243.2H518.354C518.86 243.2 519.22 243.32 519.434 243.56C519.674 243.773 519.794 244.133 519.794 244.64V249.48C519.794 249.987 519.674 250.36 519.434 250.6C519.22 250.813 518.86 250.92 518.354 250.92H510.314C509.487 250.92 508.874 251.093 508.474 251.44C508.074 251.76 507.874 252.253 507.874 252.92V262.44C507.874 263.107 508.074 263.6 508.474 263.92C508.874 264.213 509.487 264.36 510.314 264.36H518.354C518.86 264.36 519.22 264.48 519.434 264.72C519.674 264.933 519.794 265.293 519.794 265.8V270.56C519.794 271.067 519.674 271.44 519.434 271.68C519.22 271.893 518.86 272 518.354 272ZM552.515 264.44C552.515 265.667 552.329 266.787 551.955 267.8C551.609 268.787 550.969 269.64 550.035 270.36C549.129 271.053 547.862 271.6 546.235 272C544.635 272.4 542.595 272.6 540.115 272.6C537.635 272.6 535.582 272.4 533.955 272C532.329 271.6 531.049 271.053 530.115 270.36C529.209 269.64 528.569 268.787 528.195 267.8C527.849 266.787 527.675 265.667 527.675 264.44V250.8C527.675 249.573 527.849 248.467 528.195 247.48C528.569 246.467 529.209 245.6 530.115 244.88C531.049 244.16 532.329 243.6 533.955 243.2C535.582 242.8 537.635 242.6 540.115 242.6C542.595 242.6 544.635 242.8 546.235 243.2C547.862 243.6 549.129 244.16 550.035 244.88C550.969 245.6 551.609 246.467 551.955 247.48C552.329 248.467 552.515 249.573 552.515 250.8V264.44ZM536.755 263C536.755 263.533 536.955 263.987 537.355 264.36C537.755 264.707 538.675 264.88 540.115 264.88C541.555 264.88 542.475 264.707 542.875 264.36C543.275 263.987 543.475 263.533 543.475 263V252.24C543.475 251.733 543.275 251.307 542.875 250.96C542.475 250.587 541.555 250.4 540.115 250.4C538.675 250.4 537.755 250.587 537.355 250.96C536.955 251.307 536.755 251.733 536.755 252.24V263ZM569.008 272H563.048C562.541 272 562.168 271.893 561.928 271.68C561.714 271.44 561.608 271.067 561.608 270.56V244.64C561.608 244.133 561.714 243.773 561.928 243.56C562.168 243.32 562.541 243.2 563.048 243.2H569.488C569.914 243.2 570.261 243.293 570.528 243.48C570.821 243.667 571.088 243.973 571.328 244.4L574.928 250.92C575.061 251.16 575.168 251.333 575.248 251.44C575.354 251.547 575.488 251.6 575.648 251.6H576.008C576.168 251.6 576.288 251.547 576.368 251.44C576.474 251.333 576.594 251.16 576.728 250.92L580.288 244.4C580.528 243.973 580.781 243.667 581.048 243.48C581.341 243.293 581.701 243.2 582.128 243.2H588.608C589.114 243.2 589.474 243.32 589.688 243.56C589.928 243.773 590.048 244.133 590.048 244.64V270.56C590.048 271.067 589.928 271.44 589.688 271.68C589.474 271.893 589.114 272 588.608 272H582.448C581.941 272 581.568 271.893 581.328 271.68C581.114 271.44 581.008 271.067 581.008 270.56V256.48L578.648 260.84C578.408 261.293 578.114 261.627 577.768 261.84C577.448 262.027 577.034 262.12 576.528 262.12H574.928C574.421 262.12 573.994 262.027 573.648 261.84C573.328 261.627 573.048 261.293 572.808 260.84L570.448 256.48V270.56C570.448 271.067 570.328 271.44 570.088 271.68C569.874 271.893 569.514 272 569.008 272ZM607.193 272H600.993C600.486 272 600.113 271.893 599.873 271.68C599.66 271.44 599.553 271.067 599.553 270.56V244.64C599.553 244.133 599.66 243.773 599.873 243.56C600.113 243.32 600.486 243.2 600.993 243.2H613.233C616.86 243.2 619.34 243.92 620.673 245.36C622.006 246.8 622.673 248.68 622.673 251V256.12C622.673 258.44 622.006 260.32 620.673 261.76C619.34 263.2 616.86 263.92 613.233 263.92H608.633V270.56C608.633 271.067 608.513 271.44 608.273 271.68C608.06 271.893 607.7 272 607.193 272ZM608.553 250.68V256.72H612.153C612.926 256.72 613.433 256.52 613.673 256.12C613.913 255.72 614.033 255.267 614.033 254.76V252.64C614.033 252.133 613.913 251.68 613.673 251.28C613.433 250.88 612.926 250.68 612.153 250.68H608.553ZM655.339 264.44C655.339 265.667 655.152 266.787 654.779 267.8C654.432 268.787 653.792 269.64 652.859 270.36C651.952 271.053 650.699 271.6 649.099 272C647.499 272.4 645.459 272.6 642.979 272.6C640.499 272.6 638.459 272.4 636.859 272C635.259 271.6 633.992 271.053 633.059 270.36C632.152 269.64 631.512 268.787 631.139 267.8C630.792 266.787 630.619 265.667 630.619 264.44V244.64C630.619 244.133 630.725 243.773 630.939 243.56C631.179 243.32 631.552 243.2 632.059 243.2H638.339C638.845 243.2 639.205 243.32 639.419 243.56C639.659 243.773 639.779 244.133 639.779 244.64V262.88C639.779 263.413 639.979 263.867 640.379 264.24C640.779 264.587 641.672 264.76 643.059 264.76C644.472 264.76 645.379 264.587 645.779 264.24C646.179 263.867 646.379 263.413 646.379 262.88V244.64C646.379 244.133 646.485 243.773 646.699 243.56C646.939 243.32 647.312 243.2 647.819 243.2H653.899C654.405 243.2 654.765 243.32 654.979 243.56C655.219 243.773 655.339 244.133 655.339 244.64V264.44ZM678.262 272H671.782C671.276 272 670.902 271.893 670.662 271.68C670.449 271.44 670.342 271.067 670.342 270.56V250.92H664.462C663.956 250.92 663.582 250.813 663.342 250.6C663.129 250.36 663.022 249.987 663.022 249.48V244.64C663.022 244.133 663.129 243.773 663.342 243.56C663.582 243.32 663.956 243.2 664.462 243.2H685.582C686.089 243.2 686.449 243.32 686.662 243.56C686.902 243.773 687.022 244.133 687.022 244.64V249.48C687.022 249.987 686.902 250.36 686.662 250.6C686.449 250.813 686.089 250.92 685.582 250.92H679.702V270.56C679.702 271.067 679.582 271.44 679.342 271.68C679.129 271.893 678.769 272 678.262 272ZM703.751 251.6L701.871 257.68H708.151L706.271 251.6C706.164 251.36 706.044 251.187 705.911 251.08C705.804 250.973 705.671 250.92 705.511 250.92H704.511C704.351 250.92 704.204 250.973 704.071 251.08C703.964 251.187 703.857 251.36 703.751 251.6ZM701.471 270.56C701.471 271.067 701.351 271.44 701.111 271.68C700.897 271.893 700.537 272 700.031 272H694.151C693.644 272 693.271 271.893 693.031 271.68C692.817 271.44 692.711 271.067 692.711 270.56V260C692.711 259.2 692.831 258.28 693.071 257.24C693.337 256.2 693.737 254.987 694.271 253.6L697.751 244.52C697.911 244.067 698.151 243.733 698.471 243.52C698.817 243.307 699.257 243.2 699.791 243.2H710.551C711.057 243.2 711.471 243.307 711.791 243.52C712.137 243.733 712.391 244.067 712.551 244.52L716.031 253.6C716.564 254.987 716.951 256.2 717.191 257.24C717.457 258.28 717.591 259.2 717.591 260V270.56C717.591 271.067 717.471 271.44 717.231 271.68C717.017 271.893 716.657 272 716.151 272H710.111C709.577 272 709.177 271.893 708.911 271.68C708.671 271.44 708.551 271.067 708.551 270.56V264.96H701.471V270.56ZM741.17 275.84C741.036 276.267 740.823 276.573 740.53 276.76C740.236 276.947 739.836 277.04 739.33 277.04H734.29C733.623 277.04 733.21 276.893 733.05 276.6C732.89 276.307 732.903 275.92 733.09 275.44L734.37 271.96C731.57 271.773 729.49 271.013 728.13 269.68C726.77 268.347 726.09 266.4 726.09 263.84V251.4C726.09 248.627 726.89 246.573 728.49 245.24C730.116 243.88 732.596 243.2 735.93 243.2H745.69C746.196 243.2 746.556 243.32 746.77 243.56C747.01 243.773 747.13 244.133 747.13 244.64V249.48C747.13 249.987 747.01 250.36 746.77 250.6C746.556 250.813 746.196 250.92 745.69 250.92H737.65C736.823 250.92 736.21 251.093 735.81 251.44C735.41 251.76 735.21 252.253 735.21 252.92V262.44C735.21 263.107 735.41 263.6 735.81 263.92C736.21 264.213 736.823 264.36 737.65 264.36H745.69C746.196 264.36 746.556 264.48 746.77 264.72C747.01 264.933 747.13 265.293 747.13 265.8V270.56C747.13 271.067 747.01 271.44 746.77 271.68C746.556 271.893 746.196 272 745.69 272H742.53L741.17 275.84ZM766.087 251.6L764.207 257.68H770.487L768.607 251.6C768.5 251.36 768.38 251.187 768.247 251.08C768.14 250.973 768.007 250.92 767.847 250.92H766.847C766.687 250.92 766.54 250.973 766.407 251.08C766.3 251.187 766.193 251.36 766.087 251.6ZM763.807 270.56C763.807 271.067 763.687 271.44 763.447 271.68C763.233 271.893 762.873 272 762.367 272H756.487C755.98 272 755.607 271.893 755.367 271.68C755.153 271.44 755.047 271.067 755.047 270.56V260C755.047 259.2 755.167 258.28 755.407 257.24C755.673 256.2 756.073 254.987 756.607 253.6L760.087 244.52C760.247 244.067 760.487 243.733 760.807 243.52C761.153 243.307 761.593 243.2 762.127 243.2H772.887C773.393 243.2 773.807 243.307 774.127 243.52C774.473 243.733 774.727 244.067 774.887 244.52L778.367 253.6C778.9 254.987 779.287 256.2 779.527 257.24C779.793 258.28 779.927 259.2 779.927 260V270.56C779.927 271.067 779.807 271.44 779.567 271.68C779.353 271.893 778.993 272 778.487 272H772.447C771.913 272 771.513 271.893 771.247 271.68C771.007 271.44 770.887 271.067 770.887 270.56V264.96H763.807V270.56ZM767.447 241.44L766.327 241.28C765.58 241.173 764.953 241.107 764.447 241.08C763.94 241.027 763.487 241.027 763.087 241.08C762.687 241.107 762.287 241.173 761.887 241.28C761.513 241.36 761.06 241.48 760.527 241.64C760.047 241.773 759.687 241.76 759.447 241.6C759.207 241.44 759.087 241.107 759.087 240.6V236.56C759.087 236.053 759.207 235.707 759.447 235.52C759.713 235.307 760.073 235.107 760.527 234.92C761.167 234.733 761.7 234.6 762.127 234.52C762.553 234.413 762.967 234.36 763.367 234.36C763.793 234.36 764.26 234.4 764.767 234.48C765.3 234.533 765.967 234.613 766.767 234.72L767.447 234.8L768.327 234.92C769.207 235.053 769.9 235.147 770.407 235.2C770.94 235.253 771.393 235.267 771.767 235.24C772.167 235.213 772.553 235.147 772.927 235.04C773.3 234.933 773.78 234.787 774.367 234.6C774.847 234.467 775.207 234.48 775.447 234.64C775.687 234.8 775.807 235.133 775.807 235.64V239.68C775.807 240.187 775.673 240.547 775.407 240.76C775.167 240.947 774.82 241.133 774.367 241.32C773.727 241.507 773.193 241.653 772.767 241.76C772.34 241.84 771.913 241.88 771.487 241.88C771.06 241.88 770.58 241.853 770.047 241.8C769.54 241.72 768.887 241.627 768.087 241.52L767.447 241.44ZM813.265 264.44C813.265 265.667 813.079 266.787 812.705 267.8C812.359 268.787 811.719 269.64 810.785 270.36C809.879 271.053 808.612 271.6 806.985 272C805.385 272.4 803.345 272.6 800.865 272.6C798.385 272.6 796.332 272.4 794.705 272C793.079 271.6 791.799 271.053 790.865 270.36C789.959 269.64 789.319 268.787 788.945 267.8C788.599 266.787 788.425 265.667 788.425 264.44V250.8C788.425 249.573 788.599 248.467 788.945 247.48C789.319 246.467 789.959 245.6 790.865 244.88C791.799 244.16 793.079 243.6 794.705 243.2C796.332 242.8 798.385 242.6 800.865 242.6C803.345 242.6 805.385 242.8 806.985 243.2C808.612 243.6 809.879 244.16 810.785 244.88C811.719 245.6 812.359 246.467 812.705 247.48C813.079 248.467 813.265 249.573 813.265 250.8V264.44ZM797.505 263C797.505 263.533 797.705 263.987 798.105 264.36C798.505 264.707 799.425 264.88 800.865 264.88C802.305 264.88 803.225 264.707 803.625 264.36C804.025 263.987 804.225 263.533 804.225 263V252.24C804.225 251.733 804.025 251.307 803.625 250.96C803.225 250.587 802.305 250.4 800.865 250.4C799.425 250.4 798.505 250.587 798.105 250.96C797.705 251.307 797.505 251.733 797.505 252.24V263Z" fill="#E79839"/>
<mask id="path-3-outside-1_1492_493" maskUnits="userSpaceOnUse" x="707" y="36" width="138" height="171" fill="black">
<rect fill="white" x="707" y="36" width="138" height="171"/>
<path d="M763.438 115H715.838C714.572 115 713.638 114.733 713.038 114.2C712.505 113.6 712.238 112.667 712.238 111.4V94.2C712.238 90.3333 712.605 87.1667 713.338 84.7C714.138 82.1667 715.238 80.1 716.638 78.5C718.038 76.9 719.705 75.6333 721.638 74.7C723.572 73.7667 725.672 72.9667 727.938 72.3L741.338 68.1C742.405 67.8333 743.105 67.4333 743.438 66.9C743.838 66.3667 744.038 65.5667 744.038 64.5C744.038 63.5 743.838 62.8333 743.438 62.5C743.038 62.1 742.338 61.9 741.338 61.9H719.638C718.372 61.9 717.438 61.6333 716.838 61.1C716.305 60.5 716.038 59.5667 716.038 58.3V46.6C716.038 45.3333 716.305 44.4333 716.838 43.9C717.438 43.3 718.372 43 719.638 43H749.138C754.805 43 759.138 44.4333 762.138 47.3C765.205 50.1 766.738 54.2 766.738 59.6V69C766.738 74 765.338 77.8333 762.538 80.5C759.738 83.1667 755.938 85.2333 751.138 86.7L737.538 91C736.538 91.2667 735.838 91.5667 735.438 91.9C735.105 92.2333 734.938 92.9333 734.938 94V96.1H763.438C764.705 96.1 765.605 96.4 766.138 97C766.738 97.5333 767.038 98.4333 767.038 99.7V111.4C767.038 112.667 766.738 113.6 766.138 114.2C765.605 114.733 764.705 115 763.438 115ZM839.005 96.1C839.005 99.1667 838.572 101.967 837.705 104.5C836.839 106.967 835.272 109.1 833.005 110.9C830.739 112.633 827.605 114 823.605 115C819.672 116 814.639 116.5 808.505 116.5C802.372 116.5 797.305 116 793.305 115C789.372 114 786.272 112.633 784.005 110.9C781.739 109.1 780.139 106.967 779.205 104.5C778.339 101.967 777.905 99.1667 777.905 96.1V62C777.905 58.9333 778.339 56.1667 779.205 53.7C780.139 51.1667 781.739 49 784.005 47.2C786.272 45.4 789.372 44 793.305 43C797.305 42 802.372 41.5 808.505 41.5C814.639 41.5 819.672 42 823.605 43C827.605 44 830.739 45.4 833.005 47.2C835.272 49 836.839 51.1667 837.705 53.7C838.572 56.1667 839.005 58.9333 839.005 62V96.1ZM800.505 92.5C800.505 93.8333 800.972 94.9667 801.905 95.9C802.905 96.7667 805.105 97.2 808.505 97.2C811.905 97.2 814.072 96.7667 815.005 95.9C816.005 94.9667 816.505 93.8333 816.505 92.5V65.6C816.505 64.3333 816.005 63.2667 815.005 62.4C814.072 61.4667 811.905 61 808.505 61C805.105 61 802.905 61.4667 801.905 62.4C800.972 63.2667 800.505 64.3333 800.505 65.6V92.5ZM765.098 200H717.498C716.232 200 715.298 199.733 714.698 199.2C714.165 198.6 713.898 197.667 713.898 196.4V179.2C713.898 175.333 714.265 172.167 714.998 169.7C715.798 167.167 716.898 165.1 718.298 163.5C719.698 161.9 721.365 160.633 723.298 159.7C725.232 158.767 727.332 157.967 729.598 157.3L742.998 153.1C744.065 152.833 744.765 152.433 745.098 151.9C745.498 151.367 745.698 150.567 745.698 149.5C745.698 148.5 745.498 147.833 745.098 147.5C744.698 147.1 743.998 146.9 742.998 146.9H721.298C720.032 146.9 719.098 146.633 718.498 146.1C717.965 145.5 717.698 144.567 717.698 143.3V131.6C717.698 130.333 717.965 129.433 718.498 128.9C719.098 128.3 720.032 128 721.298 128H750.798C756.465 128 760.798 129.433 763.798 132.3C766.865 135.1 768.398 139.2 768.398 144.6V154C768.398 159 766.998 162.833 764.198 165.5C761.398 168.167 757.598 170.233 752.798 171.7L739.198 176C738.198 176.267 737.498 176.567 737.098 176.9C736.765 177.233 736.598 177.933 736.598 179V181.1H765.098C766.365 181.1 767.265 181.4 767.798 182C768.398 182.533 768.698 183.433 768.698 184.7V196.4C768.698 197.667 768.398 198.6 767.798 199.2C767.265 199.733 766.365 200 765.098 200ZM809.566 201.5C803.432 201.5 798.399 201 794.466 200C790.599 199.067 787.566 197.733 785.366 196C783.166 194.2 781.632 192.067 780.766 189.6C779.966 187.133 779.566 184.367 779.566 181.3V148.5C779.566 142.433 781.299 137.5 784.766 133.7C788.299 129.9 794.766 128 804.166 128H827.166C828.432 128 829.332 128.3 829.866 128.9C830.466 129.433 830.766 130.333 830.766 131.6V143.4C830.766 144.667 830.466 145.6 829.866 146.2C829.332 146.733 828.432 147 827.166 147H808.466C805.999 147 804.332 147.4 803.466 148.2C802.599 148.933 802.166 150.533 802.166 153V155.2C803.766 154.733 805.599 154.367 807.666 154.1C809.799 153.833 812.199 153.7 814.866 153.7C823.866 153.7 830.032 155.233 833.366 158.3C836.699 161.3 838.366 165.767 838.366 171.7V181.3C838.366 184.367 837.932 187.133 837.066 189.6C836.266 192.067 834.766 194.2 832.566 196C830.432 197.733 827.499 199.067 823.766 200C820.032 201 815.299 201.5 809.566 201.5ZM802.166 173.8V179.7C802.166 180.767 802.566 181.667 803.366 182.4C804.166 183.067 805.999 183.4 808.866 183.4C811.866 183.4 813.766 183.067 814.566 182.4C815.366 181.667 815.766 180.767 815.766 179.7V173.8C815.766 172.8 815.366 171.967 814.566 171.3C813.766 170.567 811.866 170.2 808.866 170.2C805.999 170.2 804.166 170.567 803.366 171.3C802.566 171.967 802.166 172.8 802.166 173.8Z"/>
</mask>
<path d="M763.438 115H715.838C714.572 115 713.638 114.733 713.038 114.2C712.505 113.6 712.238 112.667 712.238 111.4V94.2C712.238 90.3333 712.605 87.1667 713.338 84.7C714.138 82.1667 715.238 80.1 716.638 78.5C718.038 76.9 719.705 75.6333 721.638 74.7C723.572 73.7667 725.672 72.9667 727.938 72.3L741.338 68.1C742.405 67.8333 743.105 67.4333 743.438 66.9C743.838 66.3667 744.038 65.5667 744.038 64.5C744.038 63.5 743.838 62.8333 743.438 62.5C743.038 62.1 742.338 61.9 741.338 61.9H719.638C718.372 61.9 717.438 61.6333 716.838 61.1C716.305 60.5 716.038 59.5667 716.038 58.3V46.6C716.038 45.3333 716.305 44.4333 716.838 43.9C717.438 43.3 718.372 43 719.638 43H749.138C754.805 43 759.138 44.4333 762.138 47.3C765.205 50.1 766.738 54.2 766.738 59.6V69C766.738 74 765.338 77.8333 762.538 80.5C759.738 83.1667 755.938 85.2333 751.138 86.7L737.538 91C736.538 91.2667 735.838 91.5667 735.438 91.9C735.105 92.2333 734.938 92.9333 734.938 94V96.1H763.438C764.705 96.1 765.605 96.4 766.138 97C766.738 97.5333 767.038 98.4333 767.038 99.7V111.4C767.038 112.667 766.738 113.6 766.138 114.2C765.605 114.733 764.705 115 763.438 115ZM839.005 96.1C839.005 99.1667 838.572 101.967 837.705 104.5C836.839 106.967 835.272 109.1 833.005 110.9C830.739 112.633 827.605 114 823.605 115C819.672 116 814.639 116.5 808.505 116.5C802.372 116.5 797.305 116 793.305 115C789.372 114 786.272 112.633 784.005 110.9C781.739 109.1 780.139 106.967 779.205 104.5C778.339 101.967 777.905 99.1667 777.905 96.1V62C777.905 58.9333 778.339 56.1667 779.205 53.7C780.139 51.1667 781.739 49 784.005 47.2C786.272 45.4 789.372 44 793.305 43C797.305 42 802.372 41.5 808.505 41.5C814.639 41.5 819.672 42 823.605 43C827.605 44 830.739 45.4 833.005 47.2C835.272 49 836.839 51.1667 837.705 53.7C838.572 56.1667 839.005 58.9333 839.005 62V96.1ZM800.505 92.5C800.505 93.8333 800.972 94.9667 801.905 95.9C802.905 96.7667 805.105 97.2 808.505 97.2C811.905 97.2 814.072 96.7667 815.005 95.9C816.005 94.9667 816.505 93.8333 816.505 92.5V65.6C816.505 64.3333 816.005 63.2667 815.005 62.4C814.072 61.4667 811.905 61 808.505 61C805.105 61 802.905 61.4667 801.905 62.4C800.972 63.2667 800.505 64.3333 800.505 65.6V92.5ZM765.098 200H717.498C716.232 200 715.298 199.733 714.698 199.2C714.165 198.6 713.898 197.667 713.898 196.4V179.2C713.898 175.333 714.265 172.167 714.998 169.7C715.798 167.167 716.898 165.1 718.298 163.5C719.698 161.9 721.365 160.633 723.298 159.7C725.232 158.767 727.332 157.967 729.598 157.3L742.998 153.1C744.065 152.833 744.765 152.433 745.098 151.9C745.498 151.367 745.698 150.567 745.698 149.5C745.698 148.5 745.498 147.833 745.098 147.5C744.698 147.1 743.998 146.9 742.998 146.9H721.298C720.032 146.9 719.098 146.633 718.498 146.1C717.965 145.5 717.698 144.567 717.698 143.3V131.6C717.698 130.333 717.965 129.433 718.498 128.9C719.098 128.3 720.032 128 721.298 128H750.798C756.465 128 760.798 129.433 763.798 132.3C766.865 135.1 768.398 139.2 768.398 144.6V154C768.398 159 766.998 162.833 764.198 165.5C761.398 168.167 757.598 170.233 752.798 171.7L739.198 176C738.198 176.267 737.498 176.567 737.098 176.9C736.765 177.233 736.598 177.933 736.598 179V181.1H765.098C766.365 181.1 767.265 181.4 767.798 182C768.398 182.533 768.698 183.433 768.698 184.7V196.4C768.698 197.667 768.398 198.6 767.798 199.2C767.265 199.733 766.365 200 765.098 200ZM809.566 201.5C803.432 201.5 798.399 201 794.466 200C790.599 199.067 787.566 197.733 785.366 196C783.166 194.2 781.632 192.067 780.766 189.6C779.966 187.133 779.566 184.367 779.566 181.3V148.5C779.566 142.433 781.299 137.5 784.766 133.7C788.299 129.9 794.766 128 804.166 128H827.166C828.432 128 829.332 128.3 829.866 128.9C830.466 129.433 830.766 130.333 830.766 131.6V143.4C830.766 144.667 830.466 145.6 829.866 146.2C829.332 146.733 828.432 147 827.166 147H808.466C805.999 147 804.332 147.4 803.466 148.2C802.599 148.933 802.166 150.533 802.166 153V155.2C803.766 154.733 805.599 154.367 807.666 154.1C809.799 153.833 812.199 153.7 814.866 153.7C823.866 153.7 830.032 155.233 833.366 158.3C836.699 161.3 838.366 165.767 838.366 171.7V181.3C838.366 184.367 837.932 187.133 837.066 189.6C836.266 192.067 834.766 194.2 832.566 196C830.432 197.733 827.499 199.067 823.766 200C820.032 201 815.299 201.5 809.566 201.5ZM802.166 173.8V179.7C802.166 180.767 802.566 181.667 803.366 182.4C804.166 183.067 805.999 183.4 808.866 183.4C811.866 183.4 813.766 183.067 814.566 182.4C815.366 181.667 815.766 180.767 815.766 179.7V173.8C815.766 172.8 815.366 171.967 814.566 171.3C813.766 170.567 811.866 170.2 808.866 170.2C805.999 170.2 804.166 170.567 803.366 171.3C802.566 171.967 802.166 172.8 802.166 173.8Z" fill="#A10535"/>
<path d="M713.038 114.2L709.301 117.522L709.497 117.742L709.716 117.937L713.038 114.2ZM713.338 84.7L708.57 83.1943L708.558 83.2346L708.546 83.2751L713.338 84.7ZM716.638 78.5L720.401 81.7925L720.401 81.7925L716.638 78.5ZM727.938 72.3L729.349 77.0968L729.392 77.0844L729.434 77.0711L727.938 72.3ZM741.338 68.1L740.126 63.2493L739.983 63.2849L739.843 63.3289L741.338 68.1ZM743.438 66.9L739.438 63.9L739.311 64.0699L739.198 64.25L743.438 66.9ZM743.438 62.5L739.903 66.0355L740.063 66.1959L740.237 66.3411L743.438 62.5ZM716.838 61.1L713.101 64.4218L713.297 64.6416L713.516 64.837L716.838 61.1ZM716.838 43.9L713.303 40.3645H713.303L716.838 43.9ZM762.138 47.3L758.684 50.9149L758.725 50.9542L758.767 50.9924L762.138 47.3ZM762.538 80.5L759.09 76.8793H759.09L762.538 80.5ZM751.138 86.7L749.677 81.9182L749.654 81.9253L749.631 81.9326L751.138 86.7ZM737.538 91L738.827 95.8312L738.937 95.8018L739.046 95.7674L737.538 91ZM735.438 91.9L732.237 88.0589L732.063 88.2041L731.903 88.3645L735.438 91.9ZM734.938 96.1H729.938V101.1H734.938V96.1ZM766.138 97L762.401 100.322L762.597 100.542L762.816 100.737L766.138 97ZM766.138 114.2L769.674 117.736L769.674 117.736L766.138 114.2ZM763.438 115V110H715.838V115V120H763.438V115ZM715.838 115V110C715.537 110 715.47 109.966 715.562 109.992C715.668 110.023 715.994 110.138 716.36 110.463L713.038 114.2L709.716 117.937C711.634 119.641 714.02 120 715.838 120V115ZM713.038 114.2L716.775 110.878C717.101 111.244 717.216 111.57 717.246 111.676C717.272 111.768 717.238 111.702 717.238 111.4H712.238H707.238C707.238 113.218 707.597 115.605 709.301 117.522L713.038 114.2ZM712.238 111.4H717.238V94.2H712.238H707.238V111.4H712.238ZM712.238 94.2H717.238C717.238 90.5993 717.586 87.9594 718.131 86.1249L713.338 84.7L708.546 83.2751C707.624 86.3739 707.238 90.0674 707.238 94.2H712.238ZM713.338 84.7L718.106 86.2057C718.748 84.1717 719.554 82.7602 720.401 81.7925L716.638 78.5L712.875 75.2075C710.922 77.4398 709.528 80.1616 708.57 83.1943L713.338 84.7ZM716.638 78.5L720.401 81.7925C721.354 80.7038 722.478 79.8466 723.812 79.2028L721.638 74.7L719.465 70.1972C716.932 71.42 714.723 73.0962 712.875 75.2075L716.638 78.5ZM721.638 74.7L723.812 79.2028C725.476 78.3993 727.319 77.694 729.349 77.0968L727.938 72.3L726.527 67.5032C724.025 68.2393 721.667 69.1341 719.465 70.1972L721.638 74.7ZM727.938 72.3L729.434 77.0711L742.834 72.8711L741.338 68.1L739.843 63.3289L726.443 67.5289L727.938 72.3ZM741.338 68.1L742.551 72.9507C744.008 72.5863 746.299 71.7567 747.678 69.55L743.438 66.9L739.198 64.25C739.576 63.6463 740.012 63.356 740.183 63.2588C740.344 63.1663 740.364 63.1896 740.126 63.2493L741.338 68.1ZM743.438 66.9L747.438 69.9C748.774 68.1197 749.038 66.0475 749.038 64.5H744.038H739.038C739.038 64.7371 739.014 64.78 739.038 64.6873C739.062 64.5894 739.156 64.2767 739.438 63.9L743.438 66.9ZM744.038 64.5H749.038C749.038 63.2598 748.876 60.5226 746.639 58.6589L743.438 62.5L740.237 66.3411C739.468 65.7003 739.188 64.9836 739.099 64.6867C739.013 64.3995 739.038 64.2936 739.038 64.5H744.038ZM743.438 62.5L746.974 58.9645C745.134 57.1249 742.727 56.9 741.338 56.9V61.9V66.9C741.534 66.9 741.468 66.9228 741.24 66.8576C741.001 66.7895 740.452 66.5847 739.903 66.0355L743.438 62.5ZM741.338 61.9V56.9H719.638V61.9V66.9H741.338V61.9ZM719.638 61.9V56.9C719.337 56.9 719.27 56.8661 719.362 56.8924C719.468 56.9227 719.794 57.0377 720.16 57.363L716.838 61.1L713.516 64.837C715.434 66.5413 717.82 66.9 719.638 66.9V61.9ZM716.838 61.1L720.575 57.7782C720.901 58.1441 721.016 58.4702 721.046 58.5764C721.072 58.6684 721.038 58.6017 721.038 58.3H716.038H711.038C711.038 60.1178 711.397 62.5045 713.101 64.4218L716.838 61.1ZM716.038 58.3H721.038V46.6H716.038H711.038V58.3H716.038ZM716.038 46.6H721.038C721.038 46.2915 721.074 46.2554 721.032 46.3954C720.986 46.552 720.823 46.9859 720.374 47.4355L716.838 43.9L713.303 40.3645C711.366 42.3011 711.038 44.8563 711.038 46.6H716.038ZM716.838 43.9L720.374 47.4355C720.031 47.7787 719.69 47.9299 719.518 47.9851C719.37 48.0327 719.381 48 719.638 48V43V38C717.693 38 715.216 38.4515 713.303 40.3645L716.838 43.9ZM719.638 43V48H749.138V43V38H719.638V43ZM749.138 43V48C753.997 48 756.911 49.2205 758.684 50.9149L762.138 47.3L765.593 43.685C761.366 39.6462 755.613 38 749.138 38V43ZM762.138 47.3L758.767 50.9924C760.507 52.581 761.738 55.1587 761.738 59.6H766.738H771.738C771.738 53.2413 769.903 47.619 765.51 43.6076L762.138 47.3ZM766.738 59.6H761.738V69H766.738H771.738V59.6H766.738ZM766.738 69H761.738C761.738 73.0537 760.63 75.4125 759.09 76.8793L762.538 80.5L765.987 84.1207C770.046 80.2542 771.738 74.9463 771.738 69H766.738ZM762.538 80.5L759.09 76.8793C756.995 78.8742 753.947 80.6135 749.677 81.9182L751.138 86.7L752.599 91.4818C757.929 89.8532 762.481 87.4591 765.987 84.1207L762.538 80.5ZM751.138 86.7L749.631 81.9326L736.031 86.2326L737.538 91L739.046 95.7674L752.646 91.4674L751.138 86.7ZM737.538 91L736.25 86.1688C735.107 86.4736 733.514 86.9952 732.237 88.0589L735.438 91.9L738.639 95.7411C738.477 95.8765 738.349 95.955 738.289 95.9894C738.228 96.025 738.204 96.0333 738.233 96.0207C738.261 96.0088 738.322 95.9841 738.426 95.9497C738.528 95.9155 738.66 95.8755 738.827 95.8312L737.538 91ZM735.438 91.9L731.903 88.3645C730.823 89.4438 730.393 90.7049 730.199 91.5169C729.994 92.3808 729.938 93.2446 729.938 94H734.938H739.938C739.938 93.6887 739.966 93.6692 739.927 93.8331C739.905 93.9257 739.849 94.1301 739.72 94.3966C739.59 94.6649 739.361 95.0481 738.974 95.4355L735.438 91.9ZM734.938 94H729.938V96.1H734.938H739.938V94H734.938ZM734.938 96.1V101.1H763.438V96.1V91.1H734.938V96.1ZM763.438 96.1V101.1C763.703 101.1 763.68 101.135 763.482 101.068C763.253 100.992 762.814 100.786 762.401 100.322L766.138 97L769.875 93.6782C767.961 91.5248 765.319 91.1 763.438 91.1V96.1ZM766.138 97L762.816 100.737C762.352 100.324 762.146 99.885 762.07 99.6561C762.004 99.4578 762.038 99.4355 762.038 99.7H767.038H772.038C772.038 97.8189 771.613 95.1771 769.46 93.263L766.138 97ZM767.038 99.7H762.038V111.4H767.038H772.038V99.7H767.038ZM767.038 111.4H762.038C762.038 111.657 762.006 111.668 762.053 111.52C762.108 111.348 762.26 111.008 762.603 110.664L766.138 114.2L769.674 117.736C771.587 115.823 772.038 113.346 772.038 111.4H767.038ZM766.138 114.2L762.603 110.664C763.052 110.215 763.486 110.052 763.643 110.006C763.783 109.965 763.747 110 763.438 110V115V120C765.182 120 767.737 119.672 769.674 117.736L766.138 114.2ZM837.705 104.5L842.423 106.157L842.43 106.138L842.436 106.118L837.705 104.5ZM833.005 110.9L836.043 114.872L836.079 114.844L836.115 114.816L833.005 110.9ZM823.605 115L822.393 110.149L822.383 110.152L822.373 110.154L823.605 115ZM793.305 115L792.073 119.846L792.083 119.848L792.093 119.851L793.305 115ZM784.005 110.9L780.896 114.816L780.932 114.844L780.968 114.872L784.005 110.9ZM779.205 104.5L774.475 106.118L774.501 106.194L774.529 106.269L779.205 104.5ZM779.205 53.7L774.514 51.9715L774.501 52.0069L774.488 52.0426L779.205 53.7ZM784.005 47.2L780.896 43.2844V43.2844L784.005 47.2ZM793.305 43L792.093 38.1493L792.083 38.1517L792.073 38.1542L793.305 43ZM823.605 43L822.373 47.8458L822.383 47.8483L822.393 47.8507L823.605 43ZM837.705 53.7L832.975 55.3184L832.981 55.338L832.988 55.3574L837.705 53.7ZM801.905 95.9L798.37 99.4355L798.496 99.5616L798.631 99.6784L801.905 95.9ZM815.005 95.9L818.408 99.564L818.417 99.5553L815.005 95.9ZM815.005 62.4L811.47 65.9355L811.596 66.0616L811.731 66.1784L815.005 62.4ZM801.905 62.4L805.308 66.064L805.317 66.0553L801.905 62.4ZM839.005 96.1H834.005C834.005 98.6948 833.639 100.939 832.975 102.882L837.705 104.5L842.436 106.118C843.505 102.995 844.005 99.6386 844.005 96.1H839.005ZM837.705 104.5L832.988 102.843C832.467 104.326 831.506 105.706 829.896 106.984L833.005 110.9L836.115 114.816C839.038 112.494 841.211 109.607 842.423 106.157L837.705 104.5ZM833.005 110.9L829.968 106.928C828.428 108.106 826.002 109.247 822.393 110.149L823.605 115L824.818 119.851C829.209 118.753 833.049 117.161 836.043 114.872L833.005 110.9ZM823.605 115L822.373 110.154C818.992 111.014 814.412 111.5 808.505 111.5V116.5V121.5C814.866 121.5 820.353 120.986 824.837 119.846L823.605 115ZM808.505 116.5V111.5C802.603 111.5 797.98 111.015 794.518 110.149L793.305 115L792.093 119.851C796.631 120.985 802.141 121.5 808.505 121.5V116.5ZM793.305 115L794.537 110.154C791.003 109.256 788.597 108.117 787.043 106.928L784.005 110.9L780.968 114.872C783.947 117.15 787.741 118.744 792.073 119.846L793.305 115ZM784.005 110.9L787.115 106.984C785.484 105.689 784.465 104.273 783.882 102.731L779.205 104.5L774.529 106.269C775.812 109.661 777.994 112.511 780.896 114.816L784.005 110.9ZM779.205 104.5L783.936 102.882C783.272 100.939 782.905 98.6948 782.905 96.1H777.905H772.905C772.905 99.6386 773.406 102.995 774.475 106.118L779.205 104.5ZM777.905 96.1H782.905V62H777.905H772.905V96.1H777.905ZM777.905 62H782.905C782.905 59.4023 783.272 57.2084 783.923 55.3574L779.205 53.7L774.488 52.0426C773.405 55.125 772.905 58.4643 772.905 62H777.905ZM779.205 53.7L783.897 55.4285C784.491 53.8177 785.512 52.3881 787.115 51.1156L784.005 47.2L780.896 43.2844C777.965 45.6119 775.787 48.5156 774.514 51.9715L779.205 53.7ZM784.005 47.2L787.115 51.1156C788.653 49.8941 791.032 48.7371 794.537 47.8458L793.305 43L792.073 38.1542C787.712 39.2629 783.891 40.9059 780.896 43.2844L784.005 47.2ZM793.305 43L794.518 47.8507C797.98 46.9853 802.603 46.5 808.505 46.5V41.5V36.5C802.141 36.5 796.631 37.0147 792.093 38.1493L793.305 43ZM808.505 41.5V46.5C814.412 46.5 818.992 46.9861 822.373 47.8458L823.605 43L824.837 38.1542C820.353 37.0139 814.866 36.5 808.505 36.5V41.5ZM823.605 43L822.393 47.8507C825.974 48.7459 828.372 49.9055 829.896 51.1156L833.005 47.2L836.115 43.2844C833.105 40.8945 829.237 39.2541 824.818 38.1493L823.605 43ZM833.005 47.2L829.896 51.1156C831.477 52.3709 832.443 53.7637 832.975 55.3184L837.705 53.7L842.436 52.0816C841.235 48.5697 839.067 45.6291 836.115 43.2844L833.005 47.2ZM837.705 53.7L832.988 55.3574C833.639 57.2084 834.005 59.4023 834.005 62H839.005H844.005C844.005 58.4643 843.506 55.125 842.423 52.0426L837.705 53.7ZM839.005 62H834.005V96.1H839.005H844.005V62H839.005ZM800.505 92.5H795.505C795.505 95.1443 796.488 97.5539 798.37 99.4355L801.905 95.9L805.441 92.3645C805.419 92.3424 805.42 92.3397 805.433 92.3583C805.446 92.3776 805.463 92.4079 805.479 92.4463C805.495 92.4845 805.503 92.5157 805.506 92.533C805.509 92.5495 805.505 92.5407 805.505 92.5H800.505ZM801.905 95.9L798.631 99.6784C800.099 100.951 801.907 101.499 803.339 101.781C804.875 102.083 806.629 102.2 808.505 102.2V97.2V92.2C806.982 92.2 805.935 92.1 805.272 91.9693C804.948 91.9054 804.794 91.8494 804.762 91.8364C804.724 91.8209 804.911 91.8886 805.18 92.1216L801.905 95.9ZM808.505 97.2V102.2C810.379 102.2 812.131 102.084 813.661 101.778C815.067 101.497 816.931 100.935 818.408 99.564L815.005 95.9L811.603 92.236C811.763 92.0879 811.901 91.9927 811.992 91.9376C812.082 91.8826 812.137 91.8594 812.141 91.8578C812.145 91.8559 812.113 91.8694 812.036 91.8919C811.959 91.9143 811.849 91.9423 811.7 91.9721C811.063 92.0995 810.032 92.2 808.505 92.2V97.2ZM815.005 95.9L818.417 99.5553C820.401 97.7041 821.505 95.2594 821.505 92.5H816.505H811.505C811.505 92.5194 811.504 92.5066 811.511 92.4692C811.519 92.4308 811.533 92.3826 811.556 92.3318C811.578 92.2812 811.601 92.245 811.615 92.2255C811.629 92.207 811.626 92.2145 811.594 92.2447L815.005 95.9ZM816.505 92.5H821.505V65.6H816.505H811.505V92.5H816.505ZM816.505 65.6H821.505C821.505 62.8109 820.32 60.3895 818.28 58.6216L815.005 62.4L811.731 66.1784C811.767 66.2101 811.685 66.1464 811.603 65.9722C811.519 65.7923 811.505 65.644 811.505 65.6H816.505ZM815.005 62.4L818.541 58.8645C817.074 57.3977 815.187 56.7751 813.733 56.4621C812.172 56.1259 810.393 56 808.505 56V61V66C810.018 66 811.022 66.1074 811.628 66.2379C811.921 66.3012 812.031 66.3511 812.016 66.3443C812.005 66.3391 811.767 66.2324 811.47 65.9355L815.005 62.4ZM808.505 61V56C806.615 56 804.835 56.1264 803.268 56.4588C801.792 56.772 799.958 57.378 798.494 58.7447L801.905 62.4L805.317 66.0553C804.853 66.4886 804.619 66.3947 805.343 66.2412C805.976 66.1069 806.996 66 808.505 66V61ZM801.905 62.4L798.503 58.736C796.557 60.5428 795.505 62.9343 795.505 65.6H800.505H805.505C805.505 65.5952 805.503 65.7016 805.436 65.8541C805.37 66.0059 805.296 66.0749 805.308 66.064L801.905 62.4ZM800.505 65.6H795.505V92.5H800.505H805.505V65.6H800.505ZM714.698 199.2L710.961 202.522L711.157 202.742L711.377 202.937L714.698 199.2ZM714.998 169.7L710.231 168.194L710.218 168.235L710.206 168.275L714.998 169.7ZM718.298 163.5L722.061 166.793L722.061 166.793L718.298 163.5ZM729.598 157.3L731.009 162.097L731.052 162.084L731.094 162.071L729.598 157.3ZM742.998 153.1L741.786 148.249L741.643 148.285L741.503 148.329L742.998 153.1ZM745.098 151.9L741.098 148.9L740.971 149.07L740.858 149.25L745.098 151.9ZM745.098 147.5L741.563 151.036L741.723 151.196L741.898 151.341L745.098 147.5ZM718.498 146.1L714.761 149.422L714.957 149.642L715.177 149.837L718.498 146.1ZM718.498 128.9L714.963 125.364H714.963L718.498 128.9ZM763.798 132.3L760.344 135.915L760.385 135.954L760.427 135.992L763.798 132.3ZM764.198 165.5L760.75 161.879H760.75L764.198 165.5ZM752.798 171.7L751.337 166.918L751.314 166.925L751.291 166.933L752.798 171.7ZM739.198 176L740.487 180.831L740.597 180.802L740.706 180.767L739.198 176ZM737.098 176.9L733.898 173.059L733.723 173.204L733.563 173.364L737.098 176.9ZM736.598 181.1H731.598V186.1H736.598V181.1ZM767.798 182L764.061 185.322L764.257 185.542L764.477 185.737L767.798 182ZM767.798 199.2L771.334 202.736L771.334 202.736L767.798 199.2ZM765.098 200V195H717.498V200V205H765.098V200ZM717.498 200V195C717.197 195 717.13 194.966 717.222 194.992C717.328 195.023 717.654 195.138 718.02 195.463L714.698 199.2L711.377 202.937C713.294 204.641 715.681 205 717.498 205V200ZM714.698 199.2L718.435 195.878C718.761 196.244 718.876 196.57 718.906 196.676C718.932 196.768 718.898 196.702 718.898 196.4H713.898H708.898C708.898 198.218 709.257 200.605 710.961 202.522L714.698 199.2ZM713.898 196.4H718.898V179.2H713.898H708.898V196.4H713.898ZM713.898 179.2H718.898C718.898 175.599 719.246 172.959 719.791 171.125L714.998 169.7L710.206 168.275C709.284 171.374 708.898 175.067 708.898 179.2H713.898ZM714.998 169.7L719.766 171.206C720.409 169.172 721.215 167.76 722.061 166.793L718.298 163.5L714.536 160.207C712.582 162.44 711.188 165.162 710.231 168.194L714.998 169.7ZM718.298 163.5L722.061 166.793C723.014 165.704 724.138 164.847 725.472 164.203L723.298 159.7L721.125 155.197C718.592 156.42 716.383 158.096 714.536 160.207L718.298 163.5ZM723.298 159.7L725.472 164.203C727.137 163.399 728.979 162.694 731.009 162.097L729.598 157.3L728.188 152.503C725.685 153.239 723.327 154.134 721.125 155.197L723.298 159.7ZM729.598 157.3L731.094 162.071L744.494 157.871L742.998 153.1L741.503 148.329L728.103 152.529L729.598 157.3ZM742.998 153.1L744.211 157.951C745.669 157.586 747.959 156.757 749.338 154.55L745.098 151.9L740.858 149.25C741.236 148.646 741.673 148.356 741.843 148.259C742.005 148.166 742.024 148.19 741.786 148.249L742.998 153.1ZM745.098 151.9L749.098 154.9C750.434 153.12 750.698 151.047 750.698 149.5H745.698H740.698C740.698 149.737 740.675 149.78 740.698 149.687C740.722 149.589 740.816 149.277 741.098 148.9L745.098 151.9ZM745.698 149.5H750.698C750.698 148.26 750.536 145.523 748.299 143.659L745.098 147.5L741.898 151.341C741.129 150.7 740.848 149.984 740.759 149.687C740.673 149.399 740.698 149.294 740.698 149.5H745.698ZM745.098 147.5L748.634 143.964C746.794 142.125 744.387 141.9 742.998 141.9V146.9V151.9C743.194 151.9 743.128 151.923 742.9 151.858C742.661 151.79 742.112 151.585 741.563 151.036L745.098 147.5ZM742.998 146.9V141.9H721.298V146.9V151.9H742.998V146.9ZM721.298 146.9V141.9C720.997 141.9 720.93 141.866 721.022 141.892C721.128 141.923 721.454 142.038 721.82 142.363L718.498 146.1L715.177 149.837C717.094 151.541 719.481 151.9 721.298 151.9V146.9ZM718.498 146.1L722.235 142.778C722.561 143.144 722.676 143.47 722.706 143.576C722.732 143.668 722.698 143.602 722.698 143.3H717.698H712.698C712.698 145.118 713.057 147.505 714.761 149.422L718.498 146.1ZM717.698 143.3H722.698V131.6H717.698H712.698V143.3H717.698ZM717.698 131.6H722.698C722.698 131.292 722.734 131.255 722.692 131.395C722.646 131.552 722.484 131.986 722.034 132.436L718.498 128.9L714.963 125.364C713.026 127.301 712.698 129.856 712.698 131.6H717.698ZM718.498 128.9L722.034 132.436C721.691 132.779 721.35 132.93 721.178 132.985C721.031 133.033 721.041 133 721.298 133V128V123C719.353 123 716.876 123.451 714.963 125.364L718.498 128.9ZM721.298 128V133H750.798V128V123H721.298V128ZM750.798 128V133C755.657 133 758.571 134.22 760.344 135.915L763.798 132.3L767.253 128.685C763.026 124.646 757.273 123 750.798 123V128ZM763.798 132.3L760.427 135.992C762.167 137.581 763.398 140.159 763.398 144.6H768.398H773.398C773.398 138.241 771.563 132.619 767.17 128.608L763.798 132.3ZM768.398 144.6H763.398V154H768.398H773.398V144.6H768.398ZM768.398 154H763.398C763.398 158.054 762.29 160.412 760.75 161.879L764.198 165.5L767.647 169.121C771.707 165.254 773.398 159.946 773.398 154H768.398ZM764.198 165.5L760.75 161.879C758.655 163.874 755.608 165.613 751.337 166.918L752.798 171.7L754.26 176.482C759.589 174.853 764.141 172.459 767.647 169.121L764.198 165.5ZM752.798 171.7L751.291 166.933L737.691 171.233L739.198 176L740.706 180.767L754.306 176.467L752.798 171.7ZM739.198 176L737.91 171.169C736.767 171.474 735.174 171.995 733.898 173.059L737.098 176.9L740.299 180.741C740.137 180.876 740.009 180.955 739.95 180.989C739.888 181.025 739.864 181.033 739.893 181.021C739.921 181.009 739.983 180.984 740.086 180.95C740.188 180.916 740.321 180.876 740.487 180.831L739.198 176ZM737.098 176.9L733.563 173.364C732.484 174.444 732.053 175.705 731.859 176.517C731.654 177.381 731.598 178.245 731.598 179H736.598H741.598C741.598 178.689 741.626 178.669 741.587 178.833C741.565 178.926 741.509 179.13 741.38 179.397C741.251 179.665 741.021 180.048 740.634 180.436L737.098 176.9ZM736.598 179H731.598V181.1H736.598H741.598V179H736.598ZM736.598 181.1V186.1H765.098V181.1V176.1H736.598V181.1ZM765.098 181.1V186.1C765.363 186.1 765.341 186.135 765.142 186.068C764.913 185.992 764.474 185.786 764.061 185.322L767.798 182L771.535 178.678C769.621 176.525 766.98 176.1 765.098 176.1V181.1ZM767.798 182L764.477 185.737C764.012 185.324 763.806 184.885 763.73 184.656C763.664 184.458 763.698 184.436 763.698 184.7H768.698H773.698C773.698 182.819 773.274 180.177 771.12 178.263L767.798 182ZM768.698 184.7H763.698V196.4H768.698H773.698V184.7H768.698ZM768.698 196.4H763.698C763.698 196.657 763.666 196.668 763.713 196.52C763.768 196.348 763.92 196.008 764.263 195.664L767.798 199.2L771.334 202.736C773.247 200.823 773.698 198.346 773.698 196.4H768.698ZM767.798 199.2L764.263 195.664C764.713 195.215 765.146 195.052 765.303 195.006C765.443 194.965 765.407 195 765.098 195V200V205C766.842 205 769.397 204.672 771.334 202.736L767.798 199.2ZM794.466 200L795.698 195.154L795.668 195.147L795.639 195.14L794.466 200ZM785.366 196L782.199 199.87L782.235 199.899L782.271 199.927L785.366 196ZM780.766 189.6L776.01 191.143L776.028 191.2L776.048 191.257L780.766 189.6ZM784.766 133.7L781.104 130.295L781.088 130.313L781.072 130.33L784.766 133.7ZM829.866 128.9L826.129 132.222L826.324 132.442L826.544 132.637L829.866 128.9ZM803.466 148.2L806.695 152.017L806.778 151.947L806.857 151.874L803.466 148.2ZM802.166 155.2H797.166V161.867L803.566 160L802.166 155.2ZM807.666 154.1L807.045 149.139L807.036 149.14L807.026 149.141L807.666 154.1ZM833.366 158.3L829.98 161.98L830 161.998L830.021 162.016L833.366 158.3ZM837.066 189.6L832.348 187.943L832.328 188L832.31 188.057L837.066 189.6ZM832.566 196L835.719 199.881L835.725 199.875L835.732 199.87L832.566 196ZM823.766 200L822.553 195.149L822.512 195.159L822.472 195.17L823.766 200ZM803.366 182.4L799.987 186.086L800.074 186.166L800.165 186.241L803.366 182.4ZM814.566 182.4L817.767 186.241L817.857 186.166L817.944 186.086L814.566 182.4ZM814.566 171.3L811.187 174.986L811.274 175.066L811.365 175.141L814.566 171.3ZM803.366 171.3L806.567 175.141L806.657 175.066L806.744 174.986L803.366 171.3ZM809.566 201.5V196.5C803.659 196.5 799.079 196.014 795.698 195.154L794.466 200L793.234 204.846C797.719 205.986 803.205 206.5 809.566 206.5V201.5ZM794.466 200L795.639 195.14C792.199 194.309 789.909 193.214 788.46 192.073L785.366 196L782.271 199.927C785.223 202.253 788.999 203.824 793.292 204.86L794.466 200ZM785.366 196L788.532 192.13C786.978 190.859 786.019 189.468 785.483 187.943L780.766 189.6L776.048 191.257C777.246 194.665 779.353 197.541 782.199 199.87L785.366 196ZM780.766 189.6L785.522 188.057C784.91 186.17 784.566 183.936 784.566 181.3H779.566H774.566C774.566 184.797 775.022 188.096 776.01 191.143L780.766 189.6ZM779.566 181.3H784.566V148.5H779.566H774.566V181.3H779.566ZM779.566 148.5H784.566C784.566 143.443 785.98 139.787 788.459 137.07L784.766 133.7L781.072 130.33C776.617 135.213 774.566 141.424 774.566 148.5H779.566ZM784.766 133.7L788.427 137.105C790.486 134.891 795.117 133 804.166 133V128V123C794.414 123 786.112 124.909 781.104 130.295L784.766 133.7ZM804.166 128V133H827.166V128V123H804.166V128ZM827.166 128V133C827.43 133 827.408 133.035 827.209 132.968C826.981 132.892 826.541 132.686 826.129 132.222L829.866 128.9L833.603 125.578C831.689 123.425 829.047 123 827.166 123V128ZM829.866 128.9L826.544 132.637C826.079 132.224 825.874 131.785 825.797 131.556C825.731 131.358 825.766 131.336 825.766 131.6H830.766H835.766C835.766 129.719 835.341 127.077 833.187 125.163L829.866 128.9ZM830.766 131.6H825.766V143.4H830.766H835.766V131.6H830.766ZM830.766 143.4H825.766C825.766 143.657 825.733 143.668 825.78 143.52C825.836 143.348 825.987 143.008 826.33 142.664L829.866 146.2L833.401 149.736C835.314 147.823 835.766 145.346 835.766 143.4H830.766ZM829.866 146.2L826.33 142.664C826.78 142.215 827.214 142.052 827.37 142.006C827.51 141.965 827.474 142 827.166 142V147V152C828.909 152 831.465 151.672 833.401 149.736L829.866 146.2ZM827.166 147V142H808.466V147V152H827.166V147ZM808.466 147V142C806.995 142 805.541 142.116 804.199 142.438C802.886 142.753 801.356 143.342 800.074 144.526L803.466 148.2L806.857 151.874C806.442 152.258 806.178 152.247 806.532 152.162C806.857 152.084 807.469 152 808.466 152V147ZM803.466 148.2L800.236 144.383C798.747 145.643 798.03 147.292 797.664 148.643C797.291 150.022 797.166 151.518 797.166 153H802.166H807.166C807.166 152.526 807.187 152.143 807.219 151.842C807.251 151.538 807.291 151.351 807.317 151.257C807.343 151.16 807.341 151.209 807.265 151.346C807.185 151.489 807.011 151.749 806.695 152.017L803.466 148.2ZM802.166 153H797.166V155.2H802.166H807.166V153H802.166ZM802.166 155.2L803.566 160C804.864 159.621 806.435 159.3 808.305 159.059L807.666 154.1L807.026 149.141C804.763 149.433 802.667 149.845 800.766 150.4L802.166 155.2ZM807.666 154.1L808.286 159.061C810.172 158.826 812.359 158.7 814.866 158.7V153.7V148.7C812.039 148.7 809.426 148.841 807.045 149.139L807.666 154.1ZM814.866 153.7V158.7C823.677 158.7 828.132 160.279 829.98 161.98L833.366 158.3L836.751 154.62C831.932 150.187 824.055 148.7 814.866 148.7V153.7ZM833.366 158.3L830.021 162.016C831.989 163.787 833.366 166.702 833.366 171.7H838.366H843.366C843.366 164.832 841.409 158.813 836.71 154.584L833.366 158.3ZM838.366 171.7H833.366V181.3H838.366H843.366V171.7H838.366ZM838.366 181.3H833.366C833.366 183.898 832.999 186.092 832.348 187.943L837.066 189.6L841.783 191.257C842.866 188.175 843.366 184.836 843.366 181.3H838.366ZM837.066 189.6L832.31 188.057C831.834 189.525 830.931 190.877 829.399 192.13L832.566 196L835.732 199.87C838.6 197.523 840.698 194.608 841.822 191.143L837.066 189.6ZM832.566 196L829.413 192.119C828.027 193.245 825.842 194.327 822.553 195.149L823.766 200L824.978 204.851C829.156 203.806 832.837 202.221 835.719 199.881L832.566 196ZM823.766 200L822.472 195.17C819.311 196.017 815.051 196.5 809.566 196.5V201.5V206.5C815.547 206.5 820.754 205.983 825.059 204.83L823.766 200ZM802.166 173.8H797.166V179.7H802.166H807.166V173.8H802.166ZM802.166 179.7H797.166C797.166 182.196 798.174 184.424 799.987 186.086L803.366 182.4L806.744 178.714C806.799 178.764 806.929 178.905 807.035 179.144C807.142 179.385 807.166 179.593 807.166 179.7H802.166ZM803.366 182.4L800.165 186.241C801.566 187.408 803.256 187.853 804.446 188.069C805.771 188.31 807.274 188.4 808.866 188.4V183.4V178.4C807.591 178.4 806.744 178.323 806.235 178.231C805.987 178.186 805.904 178.152 805.934 178.163C805.953 178.17 806.22 178.27 806.567 178.559L803.366 182.4ZM808.866 183.4V188.4C810.515 188.4 812.058 188.311 813.405 188.075C814.595 187.866 816.337 187.432 817.767 186.241L814.566 182.4L811.365 178.559C811.733 178.252 812.016 178.151 812.023 178.149C812.045 178.14 811.947 178.178 811.677 178.225C811.123 178.322 810.216 178.4 808.866 178.4V183.4ZM814.566 182.4L817.944 186.086C819.757 184.424 820.766 182.196 820.766 179.7H815.766H810.766C810.766 179.593 810.789 179.385 810.897 179.144C811.003 178.905 811.133 178.764 811.187 178.714L814.566 182.4ZM815.766 179.7H820.766V173.8H815.766H810.766V179.7H815.766ZM815.766 173.8H820.766C820.766 171.247 819.652 169.03 817.767 167.459L814.566 171.3L811.365 175.141C811.284 175.074 811.105 174.896 810.958 174.589C810.808 174.276 810.766 173.987 810.766 173.8H815.766ZM814.566 171.3L817.944 167.614C816.514 166.303 814.731 165.805 813.488 165.566C812.105 165.299 810.531 165.2 808.866 165.2V170.2V175.2C810.201 175.2 811.076 175.285 811.593 175.384C811.844 175.433 811.918 175.468 811.873 175.449C811.838 175.435 811.546 175.315 811.187 174.986L814.566 171.3ZM808.866 170.2V165.2C807.257 165.2 805.722 165.3 804.36 165.572C803.116 165.821 801.387 166.331 799.987 167.614L803.366 171.3L806.744 174.986C806.407 175.295 806.133 175.413 806.087 175.432C806.034 175.455 806.094 175.423 806.321 175.378C806.793 175.284 807.607 175.2 808.866 175.2V170.2ZM803.366 171.3L800.165 167.459C798.279 169.03 797.166 171.247 797.166 173.8H802.166H807.166C807.166 173.987 807.123 174.276 806.973 174.589C806.826 174.896 806.647 175.074 806.567 175.141L803.366 171.3Z" fill="#FCF8F5" mask="url(#path-3-outside-1_1492_493)"/>
<mask id="path-5-outside-2_1492_493" maskUnits="userSpaceOnUse" x="5" y="43" width="694" height="154" fill="black">
<rect fill="white" x="5" y="43" width="694" height="154"/>
<path d="M80.6 192H17.4C14.8667 192 13 191.467 11.8 190.4C10.7333 189.2 10.2 187.333 10.2 184.8V161.4C10.2 158.867 10.7333 157.067 11.8 156C13 154.8 14.8667 154.2 17.4 154.2H71.2C72.9333 154.2 74.2 153.667 75 152.6C75.9333 151.4 76.4 150 76.4 148.4C76.4 146.133 75.9333 144.467 75 143.4C74.2 142.333 72.9333 141.733 71.2 141.6L41.2 137.4C31.8667 136.067 24.3333 133 18.6 128.2C13 123.4 10.2 115.4 10.2 104.2V83.2C10.2 71.8667 13.8667 63.2 21.2 57.2C28.5333 51.0667 38.6667 48 51.6 48H107.6C110.133 48 111.933 48.6 113 49.8C114.2 50.8667 114.8 52.6667 114.8 55.2V79C114.8 81.5333 114.2 83.4 113 84.6C111.933 85.6667 110.133 86.2 107.6 86.2H61C59.2667 86.2 57.9333 86.8 57 88C56.0667 89.0667 55.6 90.4667 55.6 92.2C55.6 93.9333 56.0667 95.4 57 96.6C57.9333 97.8 59.2667 98.4667 61 98.6L90.8 102.6C100.133 103.933 107.667 107 113.4 111.8C119.133 116.6 122 124.6 122 135.8V156.8C122 168.133 118.267 176.867 110.8 183C103.467 189 93.4 192 80.6 192ZM243.878 192H151.078C148.545 192 146.678 191.467 145.478 190.4C144.411 189.2 143.878 187.333 143.878 184.8V55.2C143.878 52.6667 144.411 50.8667 145.478 49.8C146.678 48.6 148.545 48 151.078 48H243.878C246.411 48 248.211 48.6 249.278 49.8C250.478 50.8667 251.078 52.6667 251.078 55.2V78.6C251.078 81.1333 250.478 83 249.278 84.2C248.211 85.2667 246.411 85.8 243.878 85.8H188.678V101.2H227.678C230.211 101.2 232.011 101.8 233.078 103C234.278 104.067 234.878 105.867 234.878 108.4V129.8C234.878 132.333 234.278 134.2 233.078 135.4C232.011 136.467 230.211 137 227.678 137H188.678V154.2H243.878C246.411 154.2 248.211 154.8 249.278 156C250.478 157.067 251.078 158.867 251.078 161.4V184.8C251.078 187.333 250.478 189.2 249.278 190.4C248.211 191.467 246.411 192 243.878 192ZM311.738 192H281.938C279.404 192 277.538 191.467 276.338 190.4C275.271 189.2 274.738 187.333 274.738 184.8V55.2C274.738 52.6667 275.271 50.8667 276.338 49.8C277.538 48.6 279.404 48 281.938 48H314.138C316.271 48 318.004 48.4667 319.338 49.4C320.804 50.3333 322.138 51.8667 323.338 54L341.338 86.6C342.004 87.8 342.538 88.6667 342.938 89.2C343.471 89.7333 344.138 90 344.938 90H346.738C347.538 90 348.138 89.7333 348.538 89.2C349.071 88.6667 349.671 87.8 350.338 86.6L368.138 54C369.338 51.8667 370.604 50.3333 371.938 49.4C373.404 48.4667 375.204 48 377.338 48H409.738C412.271 48 414.071 48.6 415.138 49.8C416.338 50.8667 416.938 52.6667 416.938 55.2V184.8C416.938 187.333 416.338 189.2 415.138 190.4C414.071 191.467 412.271 192 409.738 192H378.938C376.404 192 374.538 191.467 373.338 190.4C372.271 189.2 371.738 187.333 371.738 184.8V114.4L359.938 136.2C358.738 138.467 357.271 140.133 355.538 141.2C353.938 142.133 351.871 142.6 349.338 142.6H341.338C338.804 142.6 336.671 142.133 334.938 141.2C333.338 140.133 331.938 138.467 330.738 136.2L318.938 114.4V184.8C318.938 187.333 318.338 189.2 317.138 190.4C316.071 191.467 314.271 192 311.738 192ZM496.664 90L487.264 120.4H518.664L509.264 90C508.731 88.8 508.131 87.9333 507.464 87.4C506.931 86.8667 506.264 86.6 505.464 86.6H500.464C499.664 86.6 498.931 86.8667 498.264 87.4C497.731 87.9333 497.197 88.8 496.664 90ZM485.264 184.8C485.264 187.333 484.664 189.2 483.464 190.4C482.397 191.467 480.597 192 478.064 192H448.664C446.131 192 444.264 191.467 443.064 190.4C441.997 189.2 441.464 187.333 441.464 184.8V132C441.464 128 442.064 123.4 443.264 118.2C444.597 113 446.597 106.933 449.264 100L466.664 54.6C467.464 52.3333 468.664 50.6667 470.264 49.6C471.997 48.5333 474.197 48 476.864 48H530.664C533.197 48 535.264 48.5333 536.864 49.6C538.597 50.6667 539.864 52.3333 540.664 54.6L558.064 100C560.731 106.933 562.664 113 563.864 118.2C565.197 123.4 565.864 128 565.864 132V184.8C565.864 187.333 565.264 189.2 564.064 190.4C562.997 191.467 561.197 192 558.664 192H528.464C525.797 192 523.797 191.467 522.464 190.4C521.264 189.2 520.664 187.333 520.664 184.8V156.8H485.264V184.8ZM686.358 192H637.558C620.891 192 608.491 188.667 600.358 182C592.358 175.333 588.358 165.067 588.358 151.2V89C588.358 75.1333 592.358 64.8667 600.358 58.2C608.491 51.4 620.891 48 637.558 48H686.358C688.891 48 690.691 48.6 691.758 49.8C692.958 50.8667 693.558 52.6667 693.558 55.2V79.4C693.558 81.9333 692.958 83.8 691.758 85C690.691 86.0667 688.891 86.6 686.358 86.6H646.158C642.024 86.6 638.958 87.4667 636.958 89.2C634.958 90.8 633.958 93.2667 633.958 96.6V144.2C633.958 147.533 634.958 150 636.958 151.6C638.958 153.067 642.024 153.8 646.158 153.8H686.358C688.891 153.8 690.691 154.4 691.758 155.6C692.958 156.667 693.558 158.467 693.558 161V184.8C693.558 187.333 692.958 189.2 691.758 190.4C690.691 191.467 688.891 192 686.358 192Z"/>
</mask>
<path d="M80.6 192H17.4C14.8667 192 13 191.467 11.8 190.4C10.7333 189.2 10.2 187.333 10.2 184.8V161.4C10.2 158.867 10.7333 157.067 11.8 156C13 154.8 14.8667 154.2 17.4 154.2H71.2C72.9333 154.2 74.2 153.667 75 152.6C75.9333 151.4 76.4 150 76.4 148.4C76.4 146.133 75.9333 144.467 75 143.4C74.2 142.333 72.9333 141.733 71.2 141.6L41.2 137.4C31.8667 136.067 24.3333 133 18.6 128.2C13 123.4 10.2 115.4 10.2 104.2V83.2C10.2 71.8667 13.8667 63.2 21.2 57.2C28.5333 51.0667 38.6667 48 51.6 48H107.6C110.133 48 111.933 48.6 113 49.8C114.2 50.8667 114.8 52.6667 114.8 55.2V79C114.8 81.5333 114.2 83.4 113 84.6C111.933 85.6667 110.133 86.2 107.6 86.2H61C59.2667 86.2 57.9333 86.8 57 88C56.0667 89.0667 55.6 90.4667 55.6 92.2C55.6 93.9333 56.0667 95.4 57 96.6C57.9333 97.8 59.2667 98.4667 61 98.6L90.8 102.6C100.133 103.933 107.667 107 113.4 111.8C119.133 116.6 122 124.6 122 135.8V156.8C122 168.133 118.267 176.867 110.8 183C103.467 189 93.4 192 80.6 192ZM243.878 192H151.078C148.545 192 146.678 191.467 145.478 190.4C144.411 189.2 143.878 187.333 143.878 184.8V55.2C143.878 52.6667 144.411 50.8667 145.478 49.8C146.678 48.6 148.545 48 151.078 48H243.878C246.411 48 248.211 48.6 249.278 49.8C250.478 50.8667 251.078 52.6667 251.078 55.2V78.6C251.078 81.1333 250.478 83 249.278 84.2C248.211 85.2667 246.411 85.8 243.878 85.8H188.678V101.2H227.678C230.211 101.2 232.011 101.8 233.078 103C234.278 104.067 234.878 105.867 234.878 108.4V129.8C234.878 132.333 234.278 134.2 233.078 135.4C232.011 136.467 230.211 137 227.678 137H188.678V154.2H243.878C246.411 154.2 248.211 154.8 249.278 156C250.478 157.067 251.078 158.867 251.078 161.4V184.8C251.078 187.333 250.478 189.2 249.278 190.4C248.211 191.467 246.411 192 243.878 192ZM311.738 192H281.938C279.404 192 277.538 191.467 276.338 190.4C275.271 189.2 274.738 187.333 274.738 184.8V55.2C274.738 52.6667 275.271 50.8667 276.338 49.8C277.538 48.6 279.404 48 281.938 48H314.138C316.271 48 318.004 48.4667 319.338 49.4C320.804 50.3333 322.138 51.8667 323.338 54L341.338 86.6C342.004 87.8 342.538 88.6667 342.938 89.2C343.471 89.7333 344.138 90 344.938 90H346.738C347.538 90 348.138 89.7333 348.538 89.2C349.071 88.6667 349.671 87.8 350.338 86.6L368.138 54C369.338 51.8667 370.604 50.3333 371.938 49.4C373.404 48.4667 375.204 48 377.338 48H409.738C412.271 48 414.071 48.6 415.138 49.8C416.338 50.8667 416.938 52.6667 416.938 55.2V184.8C416.938 187.333 416.338 189.2 415.138 190.4C414.071 191.467 412.271 192 409.738 192H378.938C376.404 192 374.538 191.467 373.338 190.4C372.271 189.2 371.738 187.333 371.738 184.8V114.4L359.938 136.2C358.738 138.467 357.271 140.133 355.538 141.2C353.938 142.133 351.871 142.6 349.338 142.6H341.338C338.804 142.6 336.671 142.133 334.938 141.2C333.338 140.133 331.938 138.467 330.738 136.2L318.938 114.4V184.8C318.938 187.333 318.338 189.2 317.138 190.4C316.071 191.467 314.271 192 311.738 192ZM496.664 90L487.264 120.4H518.664L509.264 90C508.731 88.8 508.131 87.9333 507.464 87.4C506.931 86.8667 506.264 86.6 505.464 86.6H500.464C499.664 86.6 498.931 86.8667 498.264 87.4C497.731 87.9333 497.197 88.8 496.664 90ZM485.264 184.8C485.264 187.333 484.664 189.2 483.464 190.4C482.397 191.467 480.597 192 478.064 192H448.664C446.131 192 444.264 191.467 443.064 190.4C441.997 189.2 441.464 187.333 441.464 184.8V132C441.464 128 442.064 123.4 443.264 118.2C444.597 113 446.597 106.933 449.264 100L466.664 54.6C467.464 52.3333 468.664 50.6667 470.264 49.6C471.997 48.5333 474.197 48 476.864 48H530.664C533.197 48 535.264 48.5333 536.864 49.6C538.597 50.6667 539.864 52.3333 540.664 54.6L558.064 100C560.731 106.933 562.664 113 563.864 118.2C565.197 123.4 565.864 128 565.864 132V184.8C565.864 187.333 565.264 189.2 564.064 190.4C562.997 191.467 561.197 192 558.664 192H528.464C525.797 192 523.797 191.467 522.464 190.4C521.264 189.2 520.664 187.333 520.664 184.8V156.8H485.264V184.8ZM686.358 192H637.558C620.891 192 608.491 188.667 600.358 182C592.358 175.333 588.358 165.067 588.358 151.2V89C588.358 75.1333 592.358 64.8667 600.358 58.2C608.491 51.4 620.891 48 637.558 48H686.358C688.891 48 690.691 48.6 691.758 49.8C692.958 50.8667 693.558 52.6667 693.558 55.2V79.4C693.558 81.9333 692.958 83.8 691.758 85C690.691 86.0667 688.891 86.6 686.358 86.6H646.158C642.024 86.6 638.958 87.4667 636.958 89.2C634.958 90.8 633.958 93.2667 633.958 96.6V144.2C633.958 147.533 634.958 150 636.958 151.6C638.958 153.067 642.024 153.8 646.158 153.8H686.358C688.891 153.8 690.691 154.4 691.758 155.6C692.958 156.667 693.558 158.467 693.558 161V184.8C693.558 187.333 692.958 189.2 691.758 190.4C690.691 191.467 688.891 192 686.358 192Z" fill="#A10535"/>
<path d="M11.8 190.4L8.06295 193.722L8.25836 193.942L8.47818 194.137L11.8 190.4ZM11.8 156L15.3355 159.536V159.536L11.8 156ZM75 152.6L71.0532 149.53L71.0263 149.565L71 149.6L75 152.6ZM75 143.4L71 146.4L71.1131 146.551L71.2371 146.693L75 143.4ZM71.2 141.6L70.5068 146.552L70.6611 146.573L70.8165 146.585L71.2 141.6ZM41.2 137.4L40.4929 142.35L40.5068 142.352L41.2 137.4ZM18.6 128.2L15.346 131.996L15.3681 132.015L15.3903 132.034L18.6 128.2ZM21.2 57.2L24.3662 61.0698L24.3871 61.0527L24.4078 61.0354L21.2 57.2ZM113 49.8L109.263 53.1218L109.458 53.3416L109.678 53.537L113 49.8ZM57 88L60.7629 91.2925L60.8581 91.1838L60.9468 91.0697L57 88ZM61 98.6L61.6652 93.6444L61.5248 93.6256L61.3835 93.6147L61 98.6ZM90.8 102.6L91.5071 97.6502L91.4862 97.6473L91.4652 97.6444L90.8 102.6ZM113.4 111.8L116.61 107.966V107.966L113.4 111.8ZM110.8 183L113.966 186.87L113.974 186.864L110.8 183ZM80.6 192V187H17.4V192V197H80.6V192ZM17.4 192V187C16.465 187 15.8483 186.899 15.4736 186.792C15.1132 186.689 15.0559 186.604 15.1218 186.663L11.8 190.4L8.47818 194.137C10.9955 196.375 14.3155 197 17.4 197V192ZM11.8 190.4L15.537 187.078C15.5956 187.144 15.5106 187.087 15.4076 186.726C15.3006 186.352 15.2 185.735 15.2 184.8H10.2H5.2C5.2 187.884 5.82536 191.205 8.06295 193.722L11.8 190.4ZM10.2 184.8H15.2V161.4H10.2H5.2V184.8H10.2ZM10.2 161.4H15.2C15.2 160.458 15.3022 159.88 15.394 159.57C15.4809 159.277 15.5185 159.353 15.3355 159.536L11.8 156L8.26447 152.464C5.79454 154.934 5.2 158.39 5.2 161.4H10.2ZM11.8 156L15.3355 159.536C15.2225 159.649 15.5457 159.2 17.4 159.2V154.2V149.2C14.1876 149.2 10.7775 149.951 8.26447 152.464L11.8 156ZM17.4 154.2V159.2H71.2V154.2V149.2H17.4V154.2ZM71.2 154.2V159.2C73.9904 159.2 76.9837 158.288 79 155.6L75 152.6L71 149.6C71.0634 149.515 71.1484 149.426 71.2516 149.346C71.3541 149.267 71.4467 149.218 71.5097 149.192C71.6283 149.142 71.568 149.2 71.2 149.2V154.2ZM75 152.6L78.9468 155.67C80.6002 153.544 81.4 151.049 81.4 148.4H76.4H71.4C71.4 148.951 71.2665 149.256 71.0532 149.53L75 152.6ZM76.4 148.4H81.4C81.4 145.608 80.8519 142.495 78.7629 140.107L75 143.4L71.2371 146.693C71.116 146.554 71.1594 146.527 71.2352 146.798C71.3145 147.081 71.4 147.59 71.4 148.4H76.4ZM75 143.4L79 140.4C77.0919 137.856 74.2881 136.823 71.5835 136.615L71.2 141.6L70.8165 146.585C71.2152 146.616 71.3434 146.685 71.3096 146.669C71.2897 146.659 71.2389 146.632 71.1737 146.58C71.1077 146.526 71.0479 146.464 71 146.4L75 143.4ZM71.2 141.6L71.8932 136.648L41.8932 132.448L41.2 137.4L40.5068 142.352L70.5068 146.552L71.2 141.6ZM41.2 137.4L41.9071 132.45C33.2571 131.215 26.6644 128.431 21.8097 124.366L18.6 128.2L15.3903 132.034C22.0022 137.569 30.4762 140.919 40.4929 142.35L41.2 137.4ZM18.6 128.2L21.854 124.404C17.8335 120.958 15.2 114.703 15.2 104.2H10.2H5.2C5.2 116.097 8.16654 125.842 15.346 131.996L18.6 128.2ZM10.2 104.2H15.2V83.2H10.2H5.2V104.2H10.2ZM10.2 83.2H15.2C15.2 73.0405 18.4242 65.9314 24.3662 61.0698L21.2 57.2L18.0338 53.3302C9.30917 60.4686 5.2 70.6928 5.2 83.2H10.2ZM21.2 57.2L24.4078 61.0354C30.5679 55.8833 39.4249 53 51.6 53V48V43C37.9084 43 26.4988 46.25 17.9922 53.3646L21.2 57.2ZM51.6 48V53H107.6V48V43H51.6V48ZM107.6 48V53C108.498 53 109.017 53.1095 109.269 53.1934C109.49 53.2671 109.409 53.2863 109.263 53.1218L113 49.8L116.737 46.4782C114.29 43.7248 110.748 43 107.6 43V48ZM113 49.8L109.678 53.537C109.514 53.3908 109.533 53.31 109.607 53.5311C109.69 53.7828 109.8 54.3022 109.8 55.2H114.8H119.8C119.8 52.0523 119.075 48.5104 116.322 46.063L113 49.8ZM114.8 55.2H109.8V79H114.8H119.8V55.2H114.8ZM114.8 79H109.8C109.8 80.8543 109.351 81.1775 109.464 81.0645L113 84.6L116.536 88.1355C119.049 85.6225 119.8 82.2124 119.8 79H114.8ZM113 84.6L109.464 81.0645C109.647 80.8815 109.723 80.9191 109.43 81.006C109.12 81.0978 108.542 81.2 107.6 81.2V86.2V91.2C110.61 91.2 114.066 90.6055 116.536 88.1355L113 84.6ZM107.6 86.2V81.2H61V86.2V91.2H107.6V86.2ZM61 86.2V81.2C57.9691 81.2 55.075 82.3309 53.0532 84.9303L57 88L60.9468 91.0697C60.948 91.0682 60.9282 91.0933 60.8844 91.128C60.8399 91.1634 60.7924 91.1913 60.7518 91.2096C60.7127 91.2272 60.7022 91.2259 60.7351 91.2195C60.7699 91.2126 60.8544 91.2 61 91.2V86.2ZM57 88L53.2371 84.7075C51.3385 86.8773 50.6 89.5372 50.6 92.2H55.6H60.6C60.6 91.7792 60.6567 91.5412 60.6934 91.4311C60.7256 91.3346 60.7515 91.3056 60.7629 91.2925L57 88ZM55.6 92.2H50.6C50.6 94.8817 51.3433 97.4711 53.0532 99.6697L57 96.6L60.9468 93.5303C60.7901 93.3289 60.6 92.985 60.6 92.2H55.6ZM57 96.6L53.0532 99.6697C54.9795 102.146 57.701 103.361 60.6165 103.585L61 98.6L61.3835 93.6147C61.056 93.5895 60.9364 93.528 60.9361 93.5279C60.9337 93.5267 60.9423 93.5311 60.9535 93.5403C60.9645 93.5494 60.9619 93.5498 60.9468 93.5303L57 96.6ZM61 98.6L60.3348 103.556L90.1348 107.556L90.8 102.6L91.4652 97.6444L61.6652 93.6444L61 98.6ZM90.8 102.6L90.0929 107.55C98.7429 108.785 105.336 111.569 110.19 115.634L113.4 111.8L116.61 107.966C109.998 102.431 101.524 99.0812 91.5071 97.6502L90.8 102.6ZM113.4 111.8L110.19 115.634C114.318 119.09 117 125.33 117 135.8H122H127C127 123.87 123.949 114.11 116.61 107.966L113.4 111.8ZM122 135.8H117V156.8H122H127V135.8H122ZM122 156.8H117C117 166.925 113.731 174.122 107.626 179.136L110.8 183L113.974 186.864C122.802 179.612 127 169.341 127 156.8H122ZM110.8 183L107.634 179.13C101.464 184.179 92.6505 187 80.6 187V192V197C94.1495 197 105.47 193.821 113.966 186.87L110.8 183ZM145.478 190.4L141.741 193.722L141.936 193.942L142.156 194.137L145.478 190.4ZM145.478 49.8L141.943 46.2645V46.2645L145.478 49.8ZM249.278 49.8L245.541 53.1218L245.736 53.3416L245.956 53.537L249.278 49.8ZM188.678 85.8V80.8H183.678V85.8H188.678ZM188.678 101.2H183.678V106.2H188.678V101.2ZM233.078 103L229.341 106.322L229.536 106.542L229.756 106.737L233.078 103ZM233.078 135.4L229.543 131.864L233.078 135.4ZM188.678 137V132H183.678V137H188.678ZM188.678 154.2H183.678V159.2H188.678V154.2ZM249.278 156L245.541 159.322L245.736 159.542L245.956 159.737L249.278 156ZM249.278 190.4L252.814 193.936V193.936L249.278 190.4ZM243.878 192V187H151.078V192V197H243.878V192ZM151.078 192V187C150.143 187 149.526 186.899 149.152 186.792C148.791 186.689 148.734 186.604 148.8 186.663L145.478 190.4L142.156 194.137C144.674 196.375 147.994 197 151.078 197V192ZM145.478 190.4L149.215 187.078C149.274 187.144 149.189 187.087 149.086 186.726C148.979 186.352 148.878 185.735 148.878 184.8H143.878H138.878C138.878 187.884 139.503 191.205 141.741 193.722L145.478 190.4ZM143.878 184.8H148.878V55.2H143.878H138.878V184.8H143.878ZM143.878 55.2H148.878C148.878 54.2582 148.98 53.6804 149.072 53.3704C149.159 53.077 149.197 53.1525 149.014 53.3355L145.478 49.8L141.943 46.2645C139.473 48.7344 138.878 52.1896 138.878 55.2H143.878ZM145.478 49.8L149.014 53.3355C148.901 53.4485 149.224 53 151.078 53V48V43C147.866 43 144.456 43.7515 141.943 46.2645L145.478 49.8ZM151.078 48V53H243.878V48V43H151.078V48ZM243.878 48V53C244.776 53 245.295 53.1095 245.547 53.1934C245.768 53.2671 245.687 53.2863 245.541 53.1218L249.278 49.8L253.015 46.4782C250.568 43.7248 247.026 43 243.878 43V48ZM249.278 49.8L245.956 53.537C245.792 53.3908 245.811 53.31 245.885 53.5311C245.969 53.7828 246.078 54.3022 246.078 55.2H251.078H256.078C256.078 52.0523 255.353 48.5104 252.6 46.063L249.278 49.8ZM251.078 55.2H246.078V78.6H251.078H256.078V55.2H251.078ZM251.078 78.6H246.078C246.078 80.4542 245.63 80.7775 245.743 80.6645L249.278 84.2L252.814 87.7355C255.327 85.2225 256.078 81.8124 256.078 78.6H251.078ZM249.278 84.2L245.743 80.6645C245.926 80.4815 246.001 80.5191 245.708 80.606C245.398 80.6978 244.82 80.8 243.878 80.8V85.8V90.8C246.889 90.8 250.344 90.2055 252.814 87.7355L249.278 84.2ZM243.878 85.8V80.8H188.678V85.8V90.8H243.878V85.8ZM188.678 85.8H183.678V101.2H188.678H193.678V85.8H188.678ZM188.678 101.2V106.2H227.678V101.2V96.2H188.678V101.2ZM227.678 101.2V106.2C228.576 106.2 229.095 106.31 229.347 106.393C229.568 106.467 229.487 106.486 229.341 106.322L233.078 103L236.815 99.6782C234.368 96.9248 230.826 96.2 227.678 96.2V101.2ZM233.078 103L229.756 106.737C229.592 106.591 229.611 106.51 229.685 106.731C229.769 106.983 229.878 107.502 229.878 108.4H234.878H239.878C239.878 105.252 239.153 101.71 236.4 99.263L233.078 103ZM234.878 108.4H229.878V129.8H234.878H239.878V108.4H234.878ZM234.878 129.8H229.878C229.878 131.654 229.43 131.977 229.543 131.864L233.078 135.4L236.614 138.936C239.127 136.423 239.878 133.012 239.878 129.8H234.878ZM233.078 135.4L229.543 131.864C229.726 131.681 229.801 131.719 229.508 131.806C229.198 131.898 228.62 132 227.678 132V137V142C230.689 142 234.144 141.405 236.614 138.936L233.078 135.4ZM227.678 137V132H188.678V137V142H227.678V137ZM188.678 137H183.678V154.2H188.678H193.678V137H188.678ZM188.678 154.2V159.2H243.878V154.2V149.2H188.678V154.2ZM243.878 154.2V159.2C244.776 159.2 245.295 159.31 245.547 159.393C245.768 159.467 245.687 159.486 245.541 159.322L249.278 156L253.015 152.678C250.568 149.925 247.026 149.2 243.878 149.2V154.2ZM249.278 156L245.956 159.737C245.792 159.591 245.811 159.51 245.885 159.731C245.969 159.983 246.078 160.502 246.078 161.4H251.078H256.078C256.078 158.252 255.353 154.71 252.6 152.263L249.278 156ZM251.078 161.4H246.078V184.8H251.078H256.078V161.4H251.078ZM251.078 184.8H246.078C246.078 186.654 245.63 186.977 245.743 186.864L249.278 190.4L252.814 193.936C255.327 191.423 256.078 188.012 256.078 184.8H251.078ZM249.278 190.4L245.743 186.864C245.926 186.681 246.001 186.719 245.708 186.806C245.398 186.898 244.82 187 243.878 187V192V197C246.889 197 250.344 196.405 252.814 193.936L249.278 190.4ZM276.337 190.4L272.6 193.722L272.796 193.942L273.016 194.137L276.337 190.4ZM276.337 49.8L272.802 46.2645V46.2645L276.337 49.8ZM319.337 49.4L316.47 53.4962L316.56 53.5592L316.653 53.6183L319.337 49.4ZM323.337 54L327.715 51.5832L327.705 51.5659L327.695 51.5487L323.337 54ZM341.337 86.6L336.96 89.0168L336.967 89.0282L341.337 86.6ZM342.938 89.2L338.938 92.2L339.151 92.4843L339.402 92.7356L342.938 89.2ZM348.538 89.2L345.002 85.6645L344.751 85.9157L344.538 86.2L348.538 89.2ZM350.338 86.6L354.708 89.0282L354.717 89.0122L354.726 88.9961L350.338 86.6ZM368.138 54L363.78 51.5487L363.764 51.5762L363.749 51.6038L368.138 54ZM371.938 49.4L369.253 45.1817L369.16 45.2407L369.07 45.3038L371.938 49.4ZM415.138 49.8L411.4 53.1218L411.596 53.3416L411.816 53.537L415.138 49.8ZM415.138 190.4L418.673 193.936V193.936L415.138 190.4ZM373.338 190.4L369.6 193.722L369.796 193.942L370.016 194.137L373.338 190.4ZM371.737 114.4H376.737L367.34 112.02L371.737 114.4ZM359.938 136.2L355.54 133.82L355.529 133.84L355.519 133.861L359.938 136.2ZM355.538 141.2L358.057 145.519L358.108 145.489L358.158 145.458L355.538 141.2ZM334.938 141.2L332.164 145.36L332.36 145.491L332.567 145.602L334.938 141.2ZM330.737 136.2L335.156 133.861L335.146 133.84L335.135 133.82L330.737 136.2ZM318.938 114.4L323.335 112.02L313.938 114.4H318.938ZM317.138 190.4L320.673 193.936V193.936L317.138 190.4ZM311.737 192V187H281.938V192V197H311.737V192ZM281.938 192V187C281.002 187 280.386 186.899 280.011 186.792C279.651 186.689 279.593 186.604 279.659 186.663L276.337 190.4L273.016 194.137C275.533 196.375 278.853 197 281.938 197V192ZM276.337 190.4L280.075 187.078C280.133 187.144 280.048 187.087 279.945 186.726C279.838 186.352 279.737 185.735 279.737 184.8H274.737H269.737C269.737 187.884 270.363 191.205 272.6 193.722L276.337 190.4ZM274.737 184.8H279.737V55.2H274.737H269.737V184.8H274.737ZM274.737 55.2H279.737C279.737 54.2582 279.84 53.6804 279.931 53.3704C280.018 53.077 280.056 53.1525 279.873 53.3355L276.337 49.8L272.802 46.2645C270.332 48.7344 269.737 52.1896 269.737 55.2H274.737ZM276.337 49.8L279.873 53.3355C279.76 53.4485 280.083 53 281.938 53V48V43C278.725 43 275.315 43.7515 272.802 46.2645L276.337 49.8ZM281.938 48V53H314.138V48V43H281.938V48ZM314.138 48V53C315.561 53 316.204 53.3095 316.47 53.4962L319.337 49.4L322.205 45.3038C319.805 43.6238 316.981 43 314.138 43V48ZM319.337 49.4L316.653 53.6183C317.199 53.966 318.028 54.7598 318.98 56.4513L323.337 54L327.695 51.5487C326.247 48.9735 324.409 46.7007 322.022 45.1817L319.337 49.4ZM323.337 54L318.96 56.4168L336.96 89.0168L341.337 86.6L345.715 84.1832L327.715 51.5832L323.337 54ZM341.337 86.6L336.967 89.0282C337.654 90.265 338.323 91.3802 338.938 92.2L342.938 89.2L346.938 86.2C346.752 85.9531 346.354 85.335 345.708 84.1718L341.337 86.6ZM342.938 89.2L339.402 92.7356C340.934 94.2679 342.901 95 344.938 95V90V85C345.101 85 345.373 85.0292 345.694 85.1576C346.021 85.2884 346.285 85.4769 346.473 85.6644L342.938 89.2ZM344.938 90V95H346.737V90V85H344.938V90ZM346.737 90V95C348.757 95 350.999 94.2508 352.537 92.2L348.538 89.2L344.538 86.2C344.841 85.7952 345.265 85.4496 345.757 85.2309C346.22 85.0252 346.587 85 346.737 85V90ZM348.538 89.2L352.073 92.7355C353.1 91.7081 353.968 90.3601 354.708 89.0282L350.338 86.6L345.967 84.1718C345.691 84.6685 345.46 85.0387 345.277 85.3039C345.086 85.5798 344.992 85.6748 345.002 85.6645L348.538 89.2ZM350.338 86.6L354.726 88.9961L372.526 56.3961L368.138 54L363.749 51.6038L345.949 84.2038L350.338 86.6ZM368.138 54L372.495 56.4513C373.497 54.6708 374.316 53.8384 374.805 53.4961L371.938 49.4L369.07 45.3038C366.892 46.8282 365.178 49.0625 363.78 51.5487L368.138 54ZM371.938 49.4L374.622 53.6183C375.121 53.3005 375.938 53 377.337 53V48V43C374.47 43 371.687 43.6328 369.253 45.1817L371.938 49.4ZM377.337 48V53H409.737V48V43H377.337V48ZM409.737 48V53C410.635 53 411.155 53.1095 411.406 53.1934C411.627 53.2671 411.547 53.2863 411.4 53.1218L415.138 49.8L418.875 46.4782C416.427 43.7248 412.885 43 409.737 43V48ZM415.138 49.8L411.816 53.537C411.651 53.3908 411.67 53.31 411.744 53.5311C411.828 53.7828 411.938 54.3022 411.938 55.2H416.938H421.938C421.938 52.0523 421.213 48.5104 418.459 46.063L415.138 49.8ZM416.938 55.2H411.938V184.8H416.938H421.938V55.2H416.938ZM416.938 184.8H411.938C411.938 186.654 411.489 186.977 411.602 186.864L415.138 190.4L418.673 193.936C421.186 191.423 421.938 188.012 421.938 184.8H416.938ZM415.138 190.4L411.602 186.864C411.785 186.681 411.86 186.719 411.567 186.806C411.257 186.898 410.679 187 409.737 187V192V197C412.748 197 416.203 196.405 418.673 193.936L415.138 190.4ZM409.737 192V187H378.938V192V197H409.737V192ZM378.938 192V187C378.002 187 377.386 186.899 377.011 186.792C376.651 186.689 376.593 186.604 376.659 186.663L373.338 190.4L370.016 194.137C372.533 196.375 375.853 197 378.938 197V192ZM373.338 190.4L377.075 187.078C377.133 187.144 377.048 187.087 376.945 186.726C376.838 186.352 376.737 185.735 376.737 184.8H371.737H366.737C366.737 187.884 367.363 191.205 369.6 193.722L373.338 190.4ZM371.737 184.8H376.737V114.4H371.737H366.737V184.8H371.737ZM371.737 114.4L367.34 112.02L355.54 133.82L359.938 136.2L364.335 138.58L376.135 116.78L371.737 114.4ZM359.938 136.2L355.519 133.861C354.629 135.541 353.716 136.45 352.917 136.942L355.538 141.2L358.158 145.458C360.825 143.817 362.846 141.392 364.356 138.539L359.938 136.2ZM355.538 141.2L353.018 136.881C352.414 137.234 351.298 137.6 349.338 137.6V142.6V147.6C352.444 147.6 355.461 147.033 358.057 145.519L355.538 141.2ZM349.338 142.6V137.6H341.337V142.6V147.6H349.338V142.6ZM341.337 142.6V137.6C339.401 137.6 338.133 137.242 337.308 136.798L334.938 141.2L332.567 145.602C335.208 147.025 338.208 147.6 341.337 147.6V142.6ZM334.938 141.2L337.711 137.04C336.994 136.562 336.092 135.629 335.156 133.861L330.737 136.2L326.319 138.539C327.783 141.305 329.681 143.705 332.164 145.36L334.938 141.2ZM330.737 136.2L335.135 133.82L323.335 112.02L318.938 114.4L314.54 116.78L326.34 138.58L330.737 136.2ZM318.938 114.4H313.938V184.8H318.938H323.938V114.4H318.938ZM318.938 184.8H313.938C313.938 186.654 313.489 186.977 313.602 186.864L317.138 190.4L320.673 193.936C323.186 191.423 323.938 188.012 323.938 184.8H318.938ZM317.138 190.4L313.602 186.864C313.785 186.681 313.86 186.719 313.567 186.806C313.257 186.898 312.679 187 311.737 187V192V197C314.748 197 318.203 196.405 320.673 193.936L317.138 190.4ZM496.664 90L492.095 87.9693L491.975 88.24L491.887 88.5229L496.664 90ZM487.264 120.4L482.487 118.923L480.484 125.4H487.264V120.4ZM518.664 120.4V125.4H525.444L523.441 118.923L518.664 120.4ZM509.264 90L514.041 88.5229L513.953 88.24L513.833 87.9693L509.264 90ZM507.464 87.4L503.929 90.9355L504.124 91.1314L504.341 91.3044L507.464 87.4ZM498.264 87.4L495.141 83.4957L494.924 83.6686L494.729 83.8644L498.264 87.4ZM483.464 190.4L479.929 186.864V186.864L483.464 190.4ZM443.064 190.4L439.327 193.722L439.522 193.942L439.742 194.137L443.064 190.4ZM443.264 118.2L438.421 116.958L438.406 117.017L438.392 117.076L443.264 118.2ZM449.264 100L453.931 101.795L453.933 101.789L449.264 100ZM466.664 54.6L471.333 56.3894L471.357 56.327L471.379 56.2641L466.664 54.6ZM470.264 49.6L467.644 45.3417L467.566 45.3893L467.491 45.4397L470.264 49.6ZM536.864 49.6L534.091 53.7602L534.166 53.8107L534.244 53.8583L536.864 49.6ZM540.664 54.6L535.949 56.2641L535.971 56.327L535.995 56.3894L540.664 54.6ZM558.064 100L553.395 101.789L553.397 101.795L558.064 100ZM563.864 118.2L558.992 119.324L559.006 119.383L559.021 119.442L563.864 118.2ZM564.064 190.4L567.6 193.936V193.936L564.064 190.4ZM522.464 190.4L518.929 193.936L519.124 194.131L519.341 194.304L522.464 190.4ZM520.664 156.8H525.664V151.8H520.664V156.8ZM485.264 156.8V151.8H480.264V156.8H485.264ZM496.664 90L491.887 88.5229L482.487 118.923L487.264 120.4L492.041 121.877L501.441 91.477L496.664 90ZM487.264 120.4V125.4H518.664V120.4V115.4H487.264V120.4ZM518.664 120.4L523.441 118.923L514.041 88.5229L509.264 90L504.487 91.477L513.887 121.877L518.664 120.4ZM509.264 90L513.833 87.9693C513.134 86.3957 512.126 84.7265 510.587 83.4956L507.464 87.4L504.341 91.3044C504.219 91.2068 504.217 91.172 504.303 91.2961C504.388 91.419 504.526 91.6498 504.695 92.0307L509.264 90ZM507.464 87.4L511 83.8645C509.467 82.3322 507.501 81.6 505.464 81.6V86.6V91.6C505.3 91.6 505.028 91.5708 504.707 91.4424C504.38 91.3116 504.116 91.1231 503.929 90.9355L507.464 87.4ZM505.464 86.6V81.6H500.464V86.6V91.6H505.464V86.6ZM500.464 86.6V81.6C498.449 81.6 496.63 82.3042 495.141 83.4957L498.264 87.4L501.388 91.3043C501.336 91.3459 501.214 91.4295 501.023 91.499C500.828 91.5698 500.632 91.6 500.464 91.6V86.6ZM498.264 87.4L494.729 83.8644C493.553 85.0396 492.721 86.5611 492.095 87.9693L496.664 90L501.233 92.0307C501.434 91.579 501.6 91.2692 501.722 91.0705C501.851 90.8622 501.885 90.8498 501.8 90.9356L498.264 87.4ZM485.264 184.8H480.264C480.264 186.654 479.816 186.977 479.929 186.864L483.464 190.4L487 193.936C489.513 191.423 490.264 188.012 490.264 184.8H485.264ZM483.464 190.4L479.929 186.864C480.112 186.681 480.187 186.719 479.894 186.806C479.584 186.898 479.006 187 478.064 187V192V197C481.074 197 484.53 196.405 487 193.936L483.464 190.4ZM478.064 192V187H448.664V192V197H478.064V192ZM448.664 192V187C447.729 187 447.112 186.899 446.738 186.792C446.377 186.689 446.32 186.604 446.386 186.663L443.064 190.4L439.742 194.137C442.26 196.375 445.58 197 448.664 197V192ZM443.064 190.4L446.801 187.078C446.86 187.144 446.775 187.087 446.672 186.726C446.565 186.352 446.464 185.735 446.464 184.8H441.464H436.464C436.464 187.884 437.089 191.205 439.327 193.722L443.064 190.4ZM441.464 184.8H446.464V132H441.464H436.464V184.8H441.464ZM441.464 132H446.464C446.464 128.48 446.995 124.27 448.136 119.324L443.264 118.2L438.392 117.076C437.133 122.53 436.464 127.52 436.464 132H441.464ZM443.264 118.2L448.107 119.442C449.378 114.485 451.309 108.611 453.931 101.795L449.264 100L444.597 98.2051C441.885 105.256 439.816 111.515 438.421 116.958L443.264 118.2ZM449.264 100L453.933 101.789L471.333 56.3894L466.664 54.6L461.995 52.8106L444.595 98.2106L449.264 100ZM466.664 54.6L471.379 56.2641C471.91 54.7587 472.542 54.0905 473.038 53.7603L470.264 49.6L467.491 45.4397C464.786 47.2428 463.018 49.9079 461.949 52.9359L466.664 54.6ZM470.264 49.6L472.885 53.8583C473.621 53.4052 474.842 53 476.864 53V48V43C473.553 43 470.374 43.6614 467.644 45.3417L470.264 49.6ZM476.864 48V53H530.664V48V43H476.864V48ZM530.664 48V53C532.519 53 533.536 53.3903 534.091 53.7602L536.864 49.6L539.638 45.4398C536.993 43.6764 533.876 43 530.664 43V48ZM536.864 49.6L534.244 53.8583C534.833 54.2211 535.458 54.8725 535.949 56.2641L540.664 54.6L545.379 52.9359C544.27 49.7941 542.362 47.1122 539.485 45.3417L536.864 49.6ZM540.664 54.6L535.995 56.3894L553.395 101.789L558.064 100L562.733 98.2106L545.333 52.8106L540.664 54.6ZM558.064 100L553.397 101.795C556.01 108.588 557.861 114.421 558.992 119.324L563.864 118.2L568.736 117.076C567.468 111.579 565.452 105.279 562.731 98.2051L558.064 100ZM563.864 118.2L559.021 119.442C560.283 124.365 560.864 128.534 560.864 132H565.864H570.864C570.864 127.466 570.112 122.435 568.707 116.958L563.864 118.2ZM565.864 132H560.864V184.8H565.864H570.864V132H565.864ZM565.864 184.8H560.864C560.864 186.654 560.416 186.977 560.529 186.864L564.064 190.4L567.6 193.936C570.113 191.423 570.864 188.012 570.864 184.8H565.864ZM564.064 190.4L560.529 186.864C560.712 186.681 560.787 186.719 560.494 186.806C560.184 186.898 559.606 187 558.664 187V192V197C561.674 197 565.13 196.405 567.6 193.936L564.064 190.4ZM558.664 192V187H528.464V192V197H558.664V192ZM528.464 192V187C526.332 187 525.658 186.552 525.588 186.496L522.464 190.4L519.341 194.304C521.937 196.382 525.263 197 528.464 197V192ZM522.464 190.4L526 186.864C526.113 186.977 525.664 186.654 525.664 184.8H520.664H515.664C515.664 188.012 516.416 191.423 518.929 193.936L522.464 190.4ZM520.664 184.8H525.664V156.8H520.664H515.664V184.8H520.664ZM520.664 156.8V151.8H485.264V156.8V161.8H520.664V156.8ZM485.264 156.8H480.264V184.8H485.264H490.264V156.8H485.264ZM600.358 182L597.157 185.841L597.172 185.854L597.188 185.867L600.358 182ZM600.358 58.2L603.559 62.0411L603.565 62.0359L600.358 58.2ZM691.758 49.8L688.021 53.1218L688.216 53.3416L688.436 53.537L691.758 49.8ZM636.958 89.2L640.081 93.1043L640.158 93.0429L640.232 92.9784L636.958 89.2ZM636.958 151.6L633.834 155.504L633.916 155.57L634.001 155.632L636.958 151.6ZM691.758 155.6L688.021 158.922L688.216 159.142L688.436 159.337L691.758 155.6ZM691.758 190.4L695.293 193.936V193.936L691.758 190.4ZM686.358 192V187H637.558V192V197H686.358V192ZM637.558 192V187C621.412 187 610.375 183.746 603.527 178.133L600.358 182L597.188 185.867C606.607 193.587 620.371 197 637.558 197V192ZM600.358 182L603.559 178.159C597.048 172.733 593.358 164.107 593.358 151.2H588.358H583.358C583.358 166.027 587.668 177.933 597.157 185.841L600.358 182ZM588.358 151.2H593.358V89H588.358H583.358V151.2H588.358ZM588.358 89H593.358C593.358 76.0932 597.048 67.4668 603.559 62.0411L600.358 58.2L597.157 54.3589C587.668 62.2665 583.358 74.1735 583.358 89H588.358ZM600.358 58.2L603.565 62.0359C610.41 56.3134 621.43 53 637.558 53V48V43C620.353 43 606.573 46.4866 597.151 54.364L600.358 58.2ZM637.558 48V53H686.358V48V43H637.558V48ZM686.358 48V53C687.256 53 687.775 53.1095 688.027 53.1934C688.248 53.2671 688.167 53.2863 688.021 53.1218L691.758 49.8L695.495 46.4782C693.047 43.7248 689.506 43 686.358 43V48ZM691.758 49.8L688.436 53.537C688.271 53.3908 688.291 53.31 688.364 53.5311C688.448 53.7828 688.558 54.3022 688.558 55.2H693.558H698.558C698.558 52.0523 697.833 48.5104 695.08 46.063L691.758 49.8ZM693.558 55.2H688.558V79.4H693.558H698.558V55.2H693.558ZM693.558 79.4H688.558C688.558 81.2542 688.109 81.5775 688.222 81.4645L691.758 85L695.293 88.5355C697.806 86.0225 698.558 82.6124 698.558 79.4H693.558ZM691.758 85L688.222 81.4645C688.405 81.2815 688.481 81.3191 688.187 81.406C687.877 81.4978 687.3 81.6 686.358 81.6V86.6V91.6C689.368 91.6 692.823 91.0055 695.293 88.5355L691.758 85ZM686.358 86.6V81.6H646.158V86.6V91.6H686.358V86.6ZM646.158 86.6V81.6C641.465 81.6 636.983 82.562 633.683 85.4216L636.958 89.2L640.232 92.9784C640.933 92.3713 642.584 91.6 646.158 91.6V86.6ZM636.958 89.2L633.834 85.2956C630.309 88.1158 628.958 92.2429 628.958 96.6H633.958H638.958C638.958 94.2905 639.607 93.4842 640.081 93.1043L636.958 89.2ZM633.958 96.6H628.958V144.2H633.958H638.958V96.6H633.958ZM633.958 144.2H628.958C628.958 148.557 630.309 152.684 633.834 155.504L636.958 151.6L640.081 147.696C639.607 147.316 638.958 146.51 638.958 144.2H633.958ZM636.958 151.6L634.001 155.632C637.262 158.024 641.605 158.8 646.158 158.8V153.8V148.8C642.444 148.8 640.653 148.11 639.915 147.568L636.958 151.6ZM646.158 153.8V158.8H686.358V153.8V148.8H646.158V153.8ZM686.358 153.8V158.8C687.256 158.8 687.775 158.91 688.027 158.993C688.248 159.067 688.167 159.086 688.021 158.922L691.758 155.6L695.495 152.278C693.047 149.525 689.506 148.8 686.358 148.8V153.8ZM691.758 155.6L688.436 159.337C688.271 159.191 688.291 159.11 688.364 159.331C688.448 159.583 688.558 160.102 688.558 161H693.558H698.558C698.558 157.852 697.833 154.31 695.08 151.863L691.758 155.6ZM693.558 161H688.558V184.8H693.558H698.558V161H693.558ZM693.558 184.8H688.558C688.558 186.654 688.109 186.977 688.222 186.864L691.758 190.4L695.293 193.936C697.806 191.423 698.558 188.012 698.558 184.8H693.558ZM691.758 190.4L688.222 186.864C688.405 186.681 688.481 186.719 688.187 186.806C687.877 186.898 687.3 187 686.358 187V192V197C689.368 197 692.823 196.405 695.293 193.936L691.758 190.4Z" fill="#FCF8F5" mask="url(#path-5-outside-2_1492_493)"/>
</svg>
