<svg width="575" height="575" viewBox="0 0 575 575" fill="none" xmlns="http://www.w3.org/2000/svg">
<path d="M574.3 574.3C492.4 573.6 410.5 573 354.5 530.6C298.6 488.1 268.6 404 230.6 343.7C192.6 283.4 146.6 246.9 106.8 193.6C67 140.3 33.5 70.2 0 0H574.3V574.3Z" fill="#7D113E"/>
<path d="M574.3 430.7C512.9 430.2 451.4 429.7 409.5 397.9C367.5 366.1 345.1 303 316.6 257.7C288.1 212.5 253.5 185.2 223.7 145.2C193.9 105.3 168.7 52.6 143.6 0H574.3V430.7Z" fill="#921F51"/>
<path d="M574.3 287.1C533.3 286.8 492.4 286.5 464.4 265.3C436.5 244.1 421.5 202 402.5 171.8C383.5 141.7 360.4 123.5 340.6 96.8C320.7 70.2 303.9 35.1 287.2 0H574.3V287.1Z" fill="#A72E66"/>
<path d="M574.3 143.6C553.8 143.4 533.3 143.2 519.4 132.6C505.4 122 497.9 101 488.4 85.9C478.9 70.8 467.4 61.7 457.4 48.4C447.5 35.1 439.1 17.5 430.7 0H574.3V143.6Z" fill="#B13571"/>
</svg>
