<svg width="575" height="575" viewBox="0 0 575 575" fill="none" xmlns="http://www.w3.org/2000/svg">
<path d="M0 0.34257C84.4 -0.75743 168.9 -1.95742 219.8 44.0426C270.6 90.1426 287.9 183.443 334.5 240.143C381 296.943 456.8 317.143 501.7 366.843C546.5 416.543 560.4 495.543 574.3 574.643H0V0.34257Z" fill="#7D113E"/>
<path d="M0 143.943C63.3 143.043 126.7 142.143 164.8 176.743C203 211.243 215.9 281.243 250.8 323.843C285.8 366.343 342.6 381.543 376.2 418.843C409.9 456.043 420.3 515.343 430.7 574.643H0V143.943Z" fill="#921F51"/>
<path d="M0 287.543C42.2 286.943 84.4 286.343 109.9 309.343C135.3 332.443 144 379.043 167.2 407.443C190.5 435.743 228.4 445.943 250.8 470.743C273.3 495.543 280.2 535.143 287.1 574.643H0V287.543Z" fill="#A72E66"/>
<path d="M0 431.043C21.1 430.743 42.2 430.443 54.9 442.043C67.7 453.543 72 476.843 83.6 491.043C95.3 505.243 114.2 510.243 125.4 522.743C136.6 535.143 140.1 554.843 143.6 574.643H0V431.043Z" fill="#B13571"/>
</svg>
