<svg width="917" height="330" viewBox="0 0 917 330" fill="none" xmlns="http://www.w3.org/2000/svg">
<rect width="917" height="330" rx="25" fill="#FCF8F5"/>
<path d="M77.7623 284.56C77.7623 285.067 77.6423 285.44 77.4023 285.68C77.189 285.893 76.829 286 76.3223 286H70.2423C69.7357 286 69.3623 285.893 69.1223 285.68C68.909 285.44 68.8023 285.067 68.8023 284.56V280.28C68.8023 279.053 68.909 278.133 69.1223 277.52C69.3357 276.907 69.7357 276.187 70.3223 275.36L73.5623 271L70.3223 266.64C69.709 265.813 69.2957 265.093 69.0823 264.48C68.8957 263.867 68.8023 262.947 68.8023 261.72V258.64C68.8023 258.133 68.909 257.773 69.1223 257.56C69.3623 257.32 69.7357 257.2 70.2423 257.2H76.4023C76.909 257.2 77.269 257.32 77.4823 257.56C77.7223 257.773 77.8423 258.133 77.8423 258.64V261.4C77.8423 261.667 77.8557 261.947 77.8823 262.24C77.909 262.533 78.0157 262.813 78.2023 263.08L79.9623 265.6C80.0957 265.813 80.229 265.987 80.3623 266.12C80.5223 266.227 80.709 266.28 80.9223 266.28H81.4023C81.6157 266.28 81.789 266.227 81.9223 266.12C82.0557 265.987 82.2023 265.813 82.3623 265.6L84.1623 263.08C84.349 262.813 84.4557 262.533 84.4823 262.24C84.509 261.947 84.5223 261.667 84.5223 261.4V258.64C84.5223 258.133 84.629 257.773 84.8423 257.56C85.0823 257.32 85.4557 257.2 85.9623 257.2H92.0423C92.549 257.2 92.909 257.32 93.1223 257.56C93.3623 257.773 93.4823 258.133 93.4823 258.64V261.72C93.4823 262.947 93.3757 263.867 93.1623 264.48C92.949 265.093 92.549 265.813 91.9623 266.64L88.7223 271.04L91.9623 275.36C92.5757 276.187 92.9757 276.907 93.1623 277.52C93.3757 278.133 93.4823 279.053 93.4823 280.28V284.56C93.4823 285.067 93.3623 285.44 93.1223 285.68C92.909 285.893 92.549 286 92.0423 286H85.9623C85.4557 286 85.0823 285.893 84.8423 285.68C84.629 285.44 84.5223 285.067 84.5223 284.56V280.6C84.5223 280.333 84.509 280.053 84.4823 279.76C84.4557 279.467 84.349 279.187 84.1623 278.92L82.4023 276.4C82.2423 276.16 82.0957 275.987 81.9623 275.88C81.829 275.773 81.6557 275.72 81.4423 275.72H80.8823C80.669 275.72 80.4957 275.773 80.3623 275.88C80.229 275.987 80.0823 276.16 79.9223 276.4L78.1223 278.92C77.9357 279.187 77.829 279.467 77.8023 279.76C77.7757 280.053 77.7623 280.333 77.7623 280.6V284.56ZM111.255 284.56C111.255 285.067 111.135 285.44 110.895 285.68C110.681 285.893 110.321 286 109.815 286H103.735C103.228 286 102.855 285.893 102.615 285.68C102.401 285.44 102.295 285.067 102.295 284.56V280.28C102.295 279.053 102.401 278.133 102.615 277.52C102.828 276.907 103.228 276.187 103.815 275.36L107.055 271L103.815 266.64C103.201 265.813 102.788 265.093 102.575 264.48C102.388 263.867 102.295 262.947 102.295 261.72V258.64C102.295 258.133 102.401 257.773 102.615 257.56C102.855 257.32 103.228 257.2 103.735 257.2H109.895C110.401 257.2 110.761 257.32 110.975 257.56C111.215 257.773 111.335 258.133 111.335 258.64V261.4C111.335 261.667 111.348 261.947 111.375 262.24C111.401 262.533 111.508 262.813 111.695 263.08L113.455 265.6C113.588 265.813 113.721 265.987 113.855 266.12C114.015 266.227 114.201 266.28 114.415 266.28H114.895C115.108 266.28 115.281 266.227 115.415 266.12C115.548 265.987 115.695 265.813 115.855 265.6L117.655 263.08C117.841 262.813 117.948 262.533 117.975 262.24C118.001 261.947 118.015 261.667 118.015 261.4V258.64C118.015 258.133 118.121 257.773 118.335 257.56C118.575 257.32 118.948 257.2 119.455 257.2H125.535C126.041 257.2 126.401 257.32 126.615 257.56C126.855 257.773 126.975 258.133 126.975 258.64V261.72C126.975 262.947 126.868 263.867 126.655 264.48C126.441 265.093 126.041 265.813 125.455 266.64L122.215 271.04L125.455 275.36C126.068 276.187 126.468 276.907 126.655 277.52C126.868 278.133 126.975 279.053 126.975 280.28V284.56C126.975 285.067 126.855 285.44 126.615 285.68C126.401 285.893 126.041 286 125.535 286H119.455C118.948 286 118.575 285.893 118.335 285.68C118.121 285.44 118.015 285.067 118.015 284.56V280.6C118.015 280.333 118.001 280.053 117.975 279.76C117.948 279.467 117.841 279.187 117.655 278.92L115.895 276.4C115.735 276.16 115.588 275.987 115.455 275.88C115.321 275.773 115.148 275.72 114.935 275.72H114.375C114.161 275.72 113.988 275.773 113.855 275.88C113.721 275.987 113.575 276.16 113.415 276.4L111.615 278.92C111.428 279.187 111.321 279.467 111.295 279.76C111.268 280.053 111.255 280.333 111.255 280.6V284.56ZM144.747 284.56C144.747 285.067 144.627 285.44 144.387 285.68C144.173 285.893 143.813 286 143.307 286H137.227C136.72 286 136.347 285.893 136.107 285.68C135.893 285.44 135.787 285.067 135.787 284.56V280.28C135.787 279.053 135.893 278.133 136.107 277.52C136.32 276.907 136.72 276.187 137.307 275.36L140.547 271L137.307 266.64C136.693 265.813 136.28 265.093 136.067 264.48C135.88 263.867 135.787 262.947 135.787 261.72V258.64C135.787 258.133 135.893 257.773 136.107 257.56C136.347 257.32 136.72 257.2 137.227 257.2H143.387C143.893 257.2 144.253 257.32 144.467 257.56C144.707 257.773 144.827 258.133 144.827 258.64V261.4C144.827 261.667 144.84 261.947 144.867 262.24C144.893 262.533 145 262.813 145.187 263.08L146.947 265.6C147.08 265.813 147.213 265.987 147.347 266.12C147.507 266.227 147.693 266.28 147.907 266.28H148.387C148.6 266.28 148.773 266.227 148.907 266.12C149.04 265.987 149.187 265.813 149.347 265.6L151.147 263.08C151.333 262.813 151.44 262.533 151.467 262.24C151.493 261.947 151.507 261.667 151.507 261.4V258.64C151.507 258.133 151.613 257.773 151.827 257.56C152.067 257.32 152.44 257.2 152.947 257.2H159.027C159.533 257.2 159.893 257.32 160.107 257.56C160.347 257.773 160.467 258.133 160.467 258.64V261.72C160.467 262.947 160.36 263.867 160.147 264.48C159.933 265.093 159.533 265.813 158.947 266.64L155.707 271.04L158.947 275.36C159.56 276.187 159.96 276.907 160.147 277.52C160.36 278.133 160.467 279.053 160.467 280.28V284.56C160.467 285.067 160.347 285.44 160.107 285.68C159.893 285.893 159.533 286 159.027 286H152.947C152.44 286 152.067 285.893 151.827 285.68C151.613 285.44 151.507 285.067 151.507 284.56V280.6C151.507 280.333 151.493 280.053 151.467 279.76C151.44 279.467 151.333 279.187 151.147 278.92L149.387 276.4C149.227 276.16 149.08 275.987 148.947 275.88C148.813 275.773 148.64 275.72 148.427 275.72H147.867C147.653 275.72 147.48 275.773 147.347 275.88C147.213 275.987 147.067 276.16 146.907 276.4L145.107 278.92C144.92 279.187 144.813 279.467 144.787 279.76C144.76 280.053 144.747 280.333 144.747 280.6V284.56ZM186.484 286H176.084C175.577 286 175.15 285.907 174.804 285.72C174.484 285.533 174.23 285.187 174.044 284.68L170.124 274.88C169.884 274.293 169.684 273.787 169.524 273.36C169.364 272.907 169.23 272.48 169.124 272.08C169.017 271.68 168.937 271.267 168.884 270.84C168.857 270.387 168.844 269.84 168.844 269.2V258.64C168.844 258.133 168.95 257.773 169.164 257.56C169.404 257.32 169.777 257.2 170.284 257.2H176.644C177.15 257.2 177.537 257.32 177.804 257.56C178.07 257.773 178.204 258.133 178.204 258.64V269.68C178.204 269.947 178.23 270.213 178.284 270.48C178.337 270.747 178.417 271.027 178.524 271.32L180.404 276.92C180.484 277.187 180.577 277.373 180.684 277.48C180.79 277.56 180.95 277.6 181.164 277.6H181.604C181.817 277.6 181.977 277.56 182.084 277.48C182.19 277.373 182.284 277.187 182.364 276.92L184.244 271.28C184.35 270.987 184.43 270.707 184.484 270.44C184.537 270.173 184.564 269.907 184.564 269.64V258.64C184.564 258.133 184.67 257.773 184.884 257.56C185.124 257.32 185.497 257.2 186.004 257.2H192.284C192.79 257.2 193.15 257.32 193.364 257.56C193.604 257.773 193.724 258.133 193.724 258.64V269.2C193.724 269.84 193.697 270.387 193.644 270.84C193.617 271.267 193.55 271.68 193.444 272.08C193.337 272.48 193.204 272.907 193.044 273.36C192.884 273.787 192.684 274.293 192.444 274.88L188.524 284.68C188.337 285.187 188.07 285.533 187.724 285.72C187.404 285.907 186.99 286 186.484 286ZM203.462 286C202.956 286 202.582 285.893 202.342 285.68C202.129 285.44 202.022 285.067 202.022 284.56V279.8C202.022 279.293 202.129 278.933 202.342 278.72C202.582 278.48 202.956 278.36 203.462 278.36H207.422V264.92H203.462C202.956 264.92 202.582 264.813 202.342 264.6C202.129 264.36 202.022 263.987 202.022 263.48V258.64C202.022 258.133 202.129 257.773 202.342 257.56C202.582 257.32 202.956 257.2 203.462 257.2H220.502C221.009 257.2 221.369 257.32 221.582 257.56C221.822 257.773 221.942 258.133 221.942 258.64V263.48C221.942 263.987 221.822 264.36 221.582 264.6C221.369 264.813 221.009 264.92 220.502 264.92H216.622V278.36H220.502C221.009 278.36 221.369 278.48 221.582 278.72C221.822 278.933 221.942 279.293 221.942 279.8V284.56C221.942 285.067 221.822 285.44 221.582 285.68C221.369 285.893 221.009 286 220.502 286H203.462ZM257.225 286H244.585C244.079 286 243.705 285.893 243.465 285.68C243.252 285.44 243.145 285.067 243.145 284.56V279.88C243.145 279.373 243.252 279.013 243.465 278.8C243.705 278.56 244.079 278.44 244.585 278.44H255.345C255.692 278.44 255.945 278.333 256.105 278.12C256.292 277.88 256.385 277.6 256.385 277.28C256.385 276.827 256.292 276.493 256.105 276.28C255.945 276.067 255.692 275.947 255.345 275.92L249.345 275.08C247.479 274.813 245.972 274.2 244.825 273.24C243.705 272.28 243.145 270.68 243.145 268.44V264.24C243.145 261.973 243.879 260.24 245.345 259.04C246.812 257.813 248.839 257.2 251.425 257.2H262.625C263.132 257.2 263.492 257.32 263.705 257.56C263.945 257.773 264.065 258.133 264.065 258.64V263.4C264.065 263.907 263.945 264.28 263.705 264.52C263.492 264.733 263.132 264.84 262.625 264.84H253.305C252.959 264.84 252.692 264.96 252.505 265.2C252.319 265.413 252.225 265.693 252.225 266.04C252.225 266.387 252.319 266.68 252.505 266.92C252.692 267.16 252.959 267.293 253.305 267.32L259.265 268.12C261.132 268.387 262.639 269 263.785 269.96C264.932 270.92 265.505 272.52 265.505 274.76V278.96C265.505 281.227 264.759 282.973 263.265 284.2C261.799 285.4 259.785 286 257.225 286ZM293.881 286H275.321C274.814 286 274.441 285.893 274.201 285.68C273.988 285.44 273.881 285.067 273.881 284.56V258.64C273.881 258.133 273.988 257.773 274.201 257.56C274.441 257.32 274.814 257.2 275.321 257.2H293.881C294.388 257.2 294.748 257.32 294.961 257.56C295.201 257.773 295.321 258.133 295.321 258.64V263.32C295.321 263.827 295.201 264.2 294.961 264.44C294.748 264.653 294.388 264.76 293.881 264.76H282.841V267.84H290.641C291.148 267.84 291.508 267.96 291.721 268.2C291.961 268.413 292.081 268.773 292.081 269.28V273.56C292.081 274.067 291.961 274.44 291.721 274.68C291.508 274.893 291.148 275 290.641 275H282.841V278.44H293.881C294.388 278.44 294.748 278.56 294.961 278.8C295.201 279.013 295.321 279.373 295.321 279.88V284.56C295.321 285.067 295.201 285.44 294.961 285.68C294.748 285.893 294.388 286 293.881 286ZM311.453 286H305.493C304.986 286 304.613 285.893 304.373 285.68C304.16 285.44 304.053 285.067 304.053 284.56V258.64C304.053 258.133 304.16 257.773 304.373 257.56C304.613 257.32 304.986 257.2 305.493 257.2H311.933C312.36 257.2 312.706 257.293 312.973 257.48C313.266 257.667 313.533 257.973 313.773 258.4L317.373 264.92C317.506 265.16 317.613 265.333 317.693 265.44C317.8 265.547 317.933 265.6 318.093 265.6H318.453C318.613 265.6 318.733 265.547 318.813 265.44C318.92 265.333 319.04 265.16 319.173 264.92L322.733 258.4C322.973 257.973 323.226 257.667 323.493 257.48C323.786 257.293 324.146 257.2 324.573 257.2H331.053C331.56 257.2 331.92 257.32 332.133 257.56C332.373 257.773 332.493 258.133 332.493 258.64V284.56C332.493 285.067 332.373 285.44 332.133 285.68C331.92 285.893 331.56 286 331.053 286H324.893C324.386 286 324.013 285.893 323.773 285.68C323.56 285.44 323.453 285.067 323.453 284.56V270.48L321.093 274.84C320.853 275.293 320.56 275.627 320.213 275.84C319.893 276.027 319.48 276.12 318.973 276.12H317.373C316.866 276.12 316.44 276.027 316.093 275.84C315.773 275.627 315.493 275.293 315.253 274.84L312.893 270.48V284.56C312.893 285.067 312.773 285.44 312.533 285.68C312.32 285.893 311.96 286 311.453 286ZM352.438 265.6L350.558 271.68H356.838L354.958 265.6C354.852 265.36 354.732 265.187 354.598 265.08C354.492 264.973 354.358 264.92 354.198 264.92H353.198C353.038 264.92 352.892 264.973 352.758 265.08C352.652 265.187 352.545 265.36 352.438 265.6ZM350.158 284.56C350.158 285.067 350.038 285.44 349.798 285.68C349.585 285.893 349.225 286 348.718 286H342.838C342.332 286 341.958 285.893 341.718 285.68C341.505 285.44 341.398 285.067 341.398 284.56V274C341.398 273.2 341.518 272.28 341.758 271.24C342.025 270.2 342.425 268.987 342.958 267.6L346.438 258.52C346.598 258.067 346.838 257.733 347.158 257.52C347.505 257.307 347.945 257.2 348.478 257.2H359.238C359.745 257.2 360.158 257.307 360.478 257.52C360.825 257.733 361.078 258.067 361.238 258.52L364.718 267.6C365.252 268.987 365.638 270.2 365.878 271.24C366.145 272.28 366.278 273.2 366.278 274V284.56C366.278 285.067 366.158 285.44 365.918 285.68C365.705 285.893 365.345 286 364.838 286H358.798C358.265 286 357.865 285.893 357.598 285.68C357.358 285.44 357.238 285.067 357.238 284.56V278.96H350.158V284.56ZM382.657 286H376.657C376.15 286 375.777 285.893 375.537 285.68C375.324 285.44 375.217 285.067 375.217 284.56V258.64C375.217 258.133 375.324 257.773 375.537 257.56C375.777 257.32 376.15 257.2 376.657 257.2H380.817C381.324 257.2 381.75 257.28 382.097 257.44C382.47 257.6 382.83 257.88 383.177 258.28L390.937 267.16V258.64C390.937 258.133 391.044 257.773 391.257 257.56C391.497 257.32 391.87 257.2 392.377 257.2H398.377C398.884 257.2 399.244 257.32 399.457 257.56C399.697 257.773 399.817 258.133 399.817 258.64V284.56C399.817 285.067 399.697 285.44 399.457 285.68C399.244 285.893 398.884 286 398.377 286H392.377C391.87 286 391.497 285.893 391.257 285.68C391.044 285.44 390.937 285.067 390.937 284.56V279.64L384.097 271.36V284.56C384.097 285.067 383.977 285.44 383.737 285.68C383.524 285.893 383.164 286 382.657 286ZM419.774 265.6L417.894 271.68H424.174L422.294 265.6C422.188 265.36 422.068 265.187 421.934 265.08C421.828 264.973 421.694 264.92 421.534 264.92H420.534C420.374 264.92 420.228 264.973 420.094 265.08C419.988 265.187 419.881 265.36 419.774 265.6ZM417.494 284.56C417.494 285.067 417.374 285.44 417.134 285.68C416.921 285.893 416.561 286 416.054 286H410.174C409.668 286 409.294 285.893 409.054 285.68C408.841 285.44 408.734 285.067 408.734 284.56V274C408.734 273.2 408.854 272.28 409.094 271.24C409.361 270.2 409.761 268.987 410.294 267.6L413.774 258.52C413.934 258.067 414.174 257.733 414.494 257.52C414.841 257.307 415.281 257.2 415.814 257.2H426.574C427.081 257.2 427.494 257.307 427.814 257.52C428.161 257.733 428.414 258.067 428.574 258.52L432.054 267.6C432.588 268.987 432.974 270.2 433.214 271.24C433.481 272.28 433.614 273.2 433.614 274V284.56C433.614 285.067 433.494 285.44 433.254 285.68C433.041 285.893 432.681 286 432.174 286H426.134C425.601 286 425.201 285.893 424.934 285.68C424.694 285.44 424.574 285.067 424.574 284.56V278.96H417.494V284.56ZM470.262 286H456.782C456.275 286 455.902 285.893 455.662 285.68C455.449 285.44 455.342 285.067 455.342 284.56V258.64C455.342 258.133 455.449 257.773 455.662 257.56C455.902 257.32 456.275 257.2 456.782 257.2H470.262C473.595 257.2 476.062 257.867 477.662 259.2C479.289 260.533 480.102 262.587 480.102 265.36V277.84C480.102 280.613 479.289 282.667 477.662 284C476.062 285.333 473.595 286 470.262 286ZM464.422 264.84V278.44H469.182C469.822 278.44 470.289 278.28 470.582 277.96C470.902 277.64 471.062 277.147 471.062 276.48V266.76C471.062 266.093 470.902 265.613 470.582 265.32C470.289 265 469.822 264.84 469.182 264.84H464.422ZM499.626 265.6L497.746 271.68H504.026L502.146 265.6C502.039 265.36 501.919 265.187 501.786 265.08C501.679 264.973 501.546 264.92 501.386 264.92H500.386C500.226 264.92 500.079 264.973 499.946 265.08C499.839 265.187 499.732 265.36 499.626 265.6ZM497.346 284.56C497.346 285.067 497.226 285.44 496.986 285.68C496.772 285.893 496.412 286 495.906 286H490.026C489.519 286 489.146 285.893 488.906 285.68C488.692 285.44 488.586 285.067 488.586 284.56V274C488.586 273.2 488.706 272.28 488.946 271.24C489.212 270.2 489.612 268.987 490.146 267.6L493.626 258.52C493.786 258.067 494.026 257.733 494.346 257.52C494.692 257.307 495.132 257.2 495.666 257.2H506.426C506.932 257.2 507.346 257.307 507.666 257.52C508.012 257.733 508.266 258.067 508.426 258.52L511.906 267.6C512.439 268.987 512.826 270.2 513.066 271.24C513.332 272.28 513.466 273.2 513.466 274V284.56C513.466 285.067 513.346 285.44 513.106 285.68C512.892 285.893 512.532 286 512.026 286H505.986C505.452 286 505.052 285.893 504.786 285.68C504.546 285.44 504.426 285.067 504.426 284.56V278.96H497.346V284.56ZM554.354 286H544.594C541.26 286 538.78 285.333 537.154 284C535.554 282.667 534.754 280.613 534.754 277.84V265.4C534.754 262.627 535.554 260.573 537.154 259.24C538.78 257.88 541.26 257.2 544.594 257.2H554.354C554.86 257.2 555.22 257.32 555.434 257.56C555.674 257.773 555.794 258.133 555.794 258.64V263.48C555.794 263.987 555.674 264.36 555.434 264.6C555.22 264.813 554.86 264.92 554.354 264.92H546.314C545.487 264.92 544.874 265.093 544.474 265.44C544.074 265.76 543.874 266.253 543.874 266.92V276.44C543.874 277.107 544.074 277.6 544.474 277.92C544.874 278.213 545.487 278.36 546.314 278.36H554.354C554.86 278.36 555.22 278.48 555.434 278.72C555.674 278.933 555.794 279.293 555.794 279.8V284.56C555.794 285.067 555.674 285.44 555.434 285.68C555.22 285.893 554.86 286 554.354 286ZM588.515 278.44C588.515 279.667 588.329 280.787 587.955 281.8C587.609 282.787 586.969 283.64 586.035 284.36C585.129 285.053 583.862 285.6 582.235 286C580.635 286.4 578.595 286.6 576.115 286.6C573.635 286.6 571.582 286.4 569.955 286C568.329 285.6 567.049 285.053 566.115 284.36C565.209 283.64 564.569 282.787 564.195 281.8C563.849 280.787 563.675 279.667 563.675 278.44V264.8C563.675 263.573 563.849 262.467 564.195 261.48C564.569 260.467 565.209 259.6 566.115 258.88C567.049 258.16 568.329 257.6 569.955 257.2C571.582 256.8 573.635 256.6 576.115 256.6C578.595 256.6 580.635 256.8 582.235 257.2C583.862 257.6 585.129 258.16 586.035 258.88C586.969 259.6 587.609 260.467 587.955 261.48C588.329 262.467 588.515 263.573 588.515 264.8V278.44ZM572.755 277C572.755 277.533 572.955 277.987 573.355 278.36C573.755 278.707 574.675 278.88 576.115 278.88C577.555 278.88 578.475 278.707 578.875 278.36C579.275 277.987 579.475 277.533 579.475 277V266.24C579.475 265.733 579.275 265.307 578.875 264.96C578.475 264.587 577.555 264.4 576.115 264.4C574.675 264.4 573.755 264.587 573.355 264.96C572.955 265.307 572.755 265.733 572.755 266.24V277ZM605.008 286H599.048C598.541 286 598.168 285.893 597.928 285.68C597.714 285.44 597.608 285.067 597.608 284.56V258.64C597.608 258.133 597.714 257.773 597.928 257.56C598.168 257.32 598.541 257.2 599.048 257.2H605.488C605.914 257.2 606.261 257.293 606.528 257.48C606.821 257.667 607.088 257.973 607.328 258.4L610.928 264.92C611.061 265.16 611.168 265.333 611.248 265.44C611.354 265.547 611.488 265.6 611.648 265.6H612.008C612.168 265.6 612.288 265.547 612.368 265.44C612.474 265.333 612.594 265.16 612.728 264.92L616.288 258.4C616.528 257.973 616.781 257.667 617.048 257.48C617.341 257.293 617.701 257.2 618.128 257.2H624.608C625.114 257.2 625.474 257.32 625.688 257.56C625.928 257.773 626.048 258.133 626.048 258.64V284.56C626.048 285.067 625.928 285.44 625.688 285.68C625.474 285.893 625.114 286 624.608 286H618.448C617.941 286 617.568 285.893 617.328 285.68C617.114 285.44 617.008 285.067 617.008 284.56V270.48L614.648 274.84C614.408 275.293 614.114 275.627 613.768 275.84C613.448 276.027 613.034 276.12 612.528 276.12H610.928C610.421 276.12 609.994 276.027 609.648 275.84C609.328 275.627 609.048 275.293 608.808 274.84L606.448 270.48V284.56C606.448 285.067 606.328 285.44 606.088 285.68C605.874 285.893 605.514 286 605.008 286ZM643.193 286H636.993C636.486 286 636.113 285.893 635.873 285.68C635.66 285.44 635.553 285.067 635.553 284.56V258.64C635.553 258.133 635.66 257.773 635.873 257.56C636.113 257.32 636.486 257.2 636.993 257.2H649.233C652.86 257.2 655.34 257.92 656.673 259.36C658.006 260.8 658.673 262.68 658.673 265V270.12C658.673 272.44 658.006 274.32 656.673 275.76C655.34 277.2 652.86 277.92 649.233 277.92H644.633V284.56C644.633 285.067 644.513 285.44 644.273 285.68C644.06 285.893 643.7 286 643.193 286ZM644.553 264.68V270.72H648.153C648.926 270.72 649.433 270.52 649.673 270.12C649.913 269.72 650.033 269.267 650.033 268.76V266.64C650.033 266.133 649.913 265.68 649.673 265.28C649.433 264.88 648.926 264.68 648.153 264.68H644.553ZM691.339 278.44C691.339 279.667 691.152 280.787 690.779 281.8C690.432 282.787 689.792 283.64 688.859 284.36C687.952 285.053 686.699 285.6 685.099 286C683.499 286.4 681.459 286.6 678.979 286.6C676.499 286.6 674.459 286.4 672.859 286C671.259 285.6 669.992 285.053 669.059 284.36C668.152 283.64 667.512 282.787 667.139 281.8C666.792 280.787 666.619 279.667 666.619 278.44V258.64C666.619 258.133 666.725 257.773 666.939 257.56C667.179 257.32 667.552 257.2 668.059 257.2H674.339C674.845 257.2 675.205 257.32 675.419 257.56C675.659 257.773 675.779 258.133 675.779 258.64V276.88C675.779 277.413 675.979 277.867 676.379 278.24C676.779 278.587 677.672 278.76 679.059 278.76C680.472 278.76 681.379 278.587 681.779 278.24C682.179 277.867 682.379 277.413 682.379 276.88V258.64C682.379 258.133 682.485 257.773 682.699 257.56C682.939 257.32 683.312 257.2 683.819 257.2H689.899C690.405 257.2 690.765 257.32 690.979 257.56C691.219 257.773 691.339 258.133 691.339 258.64V278.44ZM714.262 286H707.782C707.276 286 706.902 285.893 706.662 285.68C706.449 285.44 706.342 285.067 706.342 284.56V264.92H700.462C699.956 264.92 699.582 264.813 699.342 264.6C699.129 264.36 699.022 263.987 699.022 263.48V258.64C699.022 258.133 699.129 257.773 699.342 257.56C699.582 257.32 699.956 257.2 700.462 257.2H721.582C722.089 257.2 722.449 257.32 722.662 257.56C722.902 257.773 723.022 258.133 723.022 258.64V263.48C723.022 263.987 722.902 264.36 722.662 264.6C722.449 264.813 722.089 264.92 721.582 264.92H715.702V284.56C715.702 285.067 715.582 285.44 715.342 285.68C715.129 285.893 714.769 286 714.262 286ZM739.751 265.6L737.871 271.68H744.151L742.271 265.6C742.164 265.36 742.044 265.187 741.911 265.08C741.804 264.973 741.671 264.92 741.511 264.92H740.511C740.351 264.92 740.204 264.973 740.071 265.08C739.964 265.187 739.857 265.36 739.751 265.6ZM737.471 284.56C737.471 285.067 737.351 285.44 737.111 285.68C736.897 285.893 736.537 286 736.031 286H730.151C729.644 286 729.271 285.893 729.031 285.68C728.817 285.44 728.711 285.067 728.711 284.56V274C728.711 273.2 728.831 272.28 729.071 271.24C729.337 270.2 729.737 268.987 730.271 267.6L733.751 258.52C733.911 258.067 734.151 257.733 734.471 257.52C734.817 257.307 735.257 257.2 735.791 257.2H746.551C747.057 257.2 747.471 257.307 747.791 257.52C748.137 257.733 748.391 258.067 748.551 258.52L752.031 267.6C752.564 268.987 752.951 270.2 753.191 271.24C753.457 272.28 753.591 273.2 753.591 274V284.56C753.591 285.067 753.471 285.44 753.231 285.68C753.017 285.893 752.657 286 752.151 286H746.111C745.577 286 745.177 285.893 744.911 285.68C744.671 285.44 744.551 285.067 744.551 284.56V278.96H737.471V284.56ZM777.17 289.84C777.036 290.267 776.823 290.573 776.53 290.76C776.236 290.947 775.836 291.04 775.33 291.04H770.29C769.623 291.04 769.21 290.893 769.05 290.6C768.89 290.307 768.903 289.92 769.09 289.44L770.37 285.96C767.57 285.773 765.49 285.013 764.13 283.68C762.77 282.347 762.09 280.4 762.09 277.84V265.4C762.09 262.627 762.89 260.573 764.49 259.24C766.116 257.88 768.596 257.2 771.93 257.2H781.69C782.196 257.2 782.556 257.32 782.77 257.56C783.01 257.773 783.13 258.133 783.13 258.64V263.48C783.13 263.987 783.01 264.36 782.77 264.6C782.556 264.813 782.196 264.92 781.69 264.92H773.65C772.823 264.92 772.21 265.093 771.81 265.44C771.41 265.76 771.21 266.253 771.21 266.92V276.44C771.21 277.107 771.41 277.6 771.81 277.92C772.21 278.213 772.823 278.36 773.65 278.36H781.69C782.196 278.36 782.556 278.48 782.77 278.72C783.01 278.933 783.13 279.293 783.13 279.8V284.56C783.13 285.067 783.01 285.44 782.77 285.68C782.556 285.893 782.196 286 781.69 286H778.53L777.17 289.84ZM802.087 265.6L800.207 271.68H806.487L804.607 265.6C804.5 265.36 804.38 265.187 804.247 265.08C804.14 264.973 804.007 264.92 803.847 264.92H802.847C802.687 264.92 802.54 264.973 802.407 265.08C802.3 265.187 802.193 265.36 802.087 265.6ZM799.807 284.56C799.807 285.067 799.687 285.44 799.447 285.68C799.233 285.893 798.873 286 798.367 286H792.487C791.98 286 791.607 285.893 791.367 285.68C791.153 285.44 791.047 285.067 791.047 284.56V274C791.047 273.2 791.167 272.28 791.407 271.24C791.673 270.2 792.073 268.987 792.607 267.6L796.087 258.52C796.247 258.067 796.487 257.733 796.807 257.52C797.153 257.307 797.593 257.2 798.127 257.2H808.887C809.393 257.2 809.807 257.307 810.127 257.52C810.473 257.733 810.727 258.067 810.887 258.52L814.367 267.6C814.9 268.987 815.287 270.2 815.527 271.24C815.793 272.28 815.927 273.2 815.927 274V284.56C815.927 285.067 815.807 285.44 815.567 285.68C815.353 285.893 814.993 286 814.487 286H808.447C807.913 286 807.513 285.893 807.247 285.68C807.007 285.44 806.887 285.067 806.887 284.56V278.96H799.807V284.56ZM803.447 255.44L802.327 255.28C801.58 255.173 800.953 255.107 800.447 255.08C799.94 255.027 799.487 255.027 799.087 255.08C798.687 255.107 798.287 255.173 797.887 255.28C797.513 255.36 797.06 255.48 796.527 255.64C796.047 255.773 795.687 255.76 795.447 255.6C795.207 255.44 795.087 255.107 795.087 254.6V250.56C795.087 250.053 795.207 249.707 795.447 249.52C795.713 249.307 796.073 249.107 796.527 248.92C797.167 248.733 797.7 248.6 798.127 248.52C798.553 248.413 798.967 248.36 799.367 248.36C799.793 248.36 800.26 248.4 800.767 248.48C801.3 248.533 801.967 248.613 802.767 248.72L803.447 248.8L804.327 248.92C805.207 249.053 805.9 249.147 806.407 249.2C806.94 249.253 807.393 249.267 807.767 249.24C808.167 249.213 808.553 249.147 808.927 249.04C809.3 248.933 809.78 248.787 810.367 248.6C810.847 248.467 811.207 248.48 811.447 248.64C811.687 248.8 811.807 249.133 811.807 249.64V253.68C811.807 254.187 811.673 254.547 811.407 254.76C811.167 254.947 810.82 255.133 810.367 255.32C809.727 255.507 809.193 255.653 808.767 255.76C808.34 255.84 807.913 255.88 807.487 255.88C807.06 255.88 806.58 255.853 806.047 255.8C805.54 255.72 804.887 255.627 804.087 255.52L803.447 255.44ZM849.265 278.44C849.265 279.667 849.079 280.787 848.705 281.8C848.359 282.787 847.719 283.64 846.785 284.36C845.879 285.053 844.612 285.6 842.985 286C841.385 286.4 839.345 286.6 836.865 286.6C834.385 286.6 832.332 286.4 830.705 286C829.079 285.6 827.799 285.053 826.865 284.36C825.959 283.64 825.319 282.787 824.945 281.8C824.599 280.787 824.425 279.667 824.425 278.44V264.8C824.425 263.573 824.599 262.467 824.945 261.48C825.319 260.467 825.959 259.6 826.865 258.88C827.799 258.16 829.079 257.6 830.705 257.2C832.332 256.8 834.385 256.6 836.865 256.6C839.345 256.6 841.385 256.8 842.985 257.2C844.612 257.6 845.879 258.16 846.785 258.88C847.719 259.6 848.359 260.467 848.705 261.48C849.079 262.467 849.265 263.573 849.265 264.8V278.44ZM833.505 277C833.505 277.533 833.705 277.987 834.105 278.36C834.505 278.707 835.425 278.88 836.865 278.88C838.305 278.88 839.225 278.707 839.625 278.36C840.025 277.987 840.225 277.533 840.225 277V266.24C840.225 265.733 840.025 265.307 839.625 264.96C839.225 264.587 838.305 264.4 836.865 264.4C835.425 264.4 834.505 264.587 834.105 264.96C833.705 265.307 833.505 265.733 833.505 266.24V277Z" fill="#E79839"/>
<g filter="url(#filter0_d_914_1837)">
<path d="M796.438 149.45H748.838C747.572 149.45 746.638 149.183 746.038 148.65C745.505 148.05 745.238 147.116 745.238 145.85V128.65C745.238 124.783 745.605 121.616 746.338 119.15C747.138 116.616 748.238 114.55 749.638 112.95C751.038 111.35 752.705 110.083 754.638 109.15C756.572 108.216 758.672 107.416 760.938 106.75L774.338 102.55C775.405 102.283 776.105 101.883 776.438 101.35C776.838 100.816 777.038 100.016 777.038 98.9498C777.038 97.9498 776.838 97.2831 776.438 96.9498C776.038 96.5498 775.338 96.3498 774.338 96.3498H752.638C751.372 96.3498 750.438 96.0831 749.838 95.5498C749.305 94.9498 749.038 94.0164 749.038 92.7498V81.0498C749.038 79.7831 749.305 78.8831 749.838 78.3498C750.438 77.7498 751.372 77.4498 752.638 77.4498H782.138C787.805 77.4498 792.138 78.8831 795.138 81.7498C798.205 84.5498 799.738 88.6498 799.738 94.0498V103.45C799.738 108.45 798.338 112.283 795.538 114.95C792.738 117.616 788.938 119.683 784.138 121.15L770.538 125.45C769.538 125.716 768.838 126.016 768.438 126.35C768.105 126.683 767.938 127.383 767.938 128.45V130.55H796.438C797.705 130.55 798.605 130.85 799.138 131.45C799.738 131.983 800.038 132.883 800.038 134.15V145.85C800.038 147.116 799.738 148.05 799.138 148.65C798.605 149.183 797.705 149.45 796.438 149.45ZM872.005 130.55C872.005 133.616 871.572 136.416 870.705 138.95C869.839 141.416 868.272 143.55 866.005 145.35C863.739 147.083 860.605 148.45 856.605 149.45C852.672 150.45 847.639 150.95 841.505 150.95C835.372 150.95 830.305 150.45 826.305 149.45C822.372 148.45 819.272 147.083 817.005 145.35C814.739 143.55 813.139 141.416 812.205 138.95C811.339 136.416 810.905 133.616 810.905 130.55V96.4498C810.905 93.3831 811.339 90.6164 812.205 88.1498C813.139 85.6164 814.739 83.4498 817.005 81.6498C819.272 79.8498 822.372 78.4498 826.305 77.4498C830.305 76.4498 835.372 75.9498 841.505 75.9498C847.639 75.9498 852.672 76.4498 856.605 77.4498C860.605 78.4498 863.739 79.8498 866.005 81.6498C868.272 83.4498 869.839 85.6164 870.705 88.1498C871.572 90.6164 872.005 93.3831 872.005 96.4498V130.55ZM833.505 126.95C833.505 128.283 833.972 129.416 834.905 130.35C835.905 131.216 838.105 131.65 841.505 131.65C844.905 131.65 847.072 131.216 848.005 130.35C849.005 129.416 849.505 128.283 849.505 126.95V100.05C849.505 98.7831 849.005 97.7164 848.005 96.8498C847.072 95.9164 844.905 95.4498 841.505 95.4498C838.105 95.4498 835.905 95.9164 834.905 96.8498C833.972 97.7164 833.505 98.7831 833.505 100.05V126.95ZM798.098 228.45H750.498C749.232 228.45 748.298 228.183 747.698 227.65C747.165 227.05 746.898 226.116 746.898 224.85V207.65C746.898 203.783 747.265 200.616 747.998 198.15C748.798 195.616 749.898 193.55 751.298 191.95C752.698 190.35 754.365 189.083 756.298 188.15C758.232 187.216 760.332 186.416 762.598 185.75L775.998 181.55C777.065 181.283 777.765 180.883 778.098 180.35C778.498 179.816 778.698 179.016 778.698 177.95C778.698 176.95 778.498 176.283 778.098 175.95C777.698 175.55 776.998 175.35 775.998 175.35H754.298C753.032 175.35 752.098 175.083 751.498 174.55C750.965 173.95 750.698 173.016 750.698 171.75V160.05C750.698 158.783 750.965 157.883 751.498 157.35C752.098 156.75 753.032 156.45 754.298 156.45H783.798C789.465 156.45 793.798 157.883 796.798 160.75C799.865 163.55 801.398 167.65 801.398 173.05V182.45C801.398 187.45 799.998 191.283 797.198 193.95C794.398 196.616 790.598 198.683 785.798 200.15L772.198 204.45C771.198 204.716 770.498 205.016 770.098 205.35C769.765 205.683 769.598 206.383 769.598 207.45V209.55H798.098C799.365 209.55 800.265 209.85 800.798 210.45C801.398 210.983 801.698 211.883 801.698 213.15V224.85C801.698 226.116 801.398 227.05 800.798 227.65C800.265 228.183 799.365 228.45 798.098 228.45ZM842.566 229.95C836.432 229.95 831.399 229.45 827.466 228.45C823.599 227.516 820.566 226.183 818.366 224.45C816.166 222.65 814.632 220.516 813.766 218.05C812.966 215.583 812.566 212.816 812.566 209.75V176.95C812.566 170.883 814.299 165.95 817.766 162.15C821.299 158.35 827.766 156.45 837.166 156.45H860.166C861.432 156.45 862.332 156.75 862.866 157.35C863.466 157.883 863.766 158.783 863.766 160.05V171.85C863.766 173.116 863.466 174.05 862.866 174.65C862.332 175.183 861.432 175.45 860.166 175.45H841.466C838.999 175.45 837.332 175.85 836.466 176.65C835.599 177.383 835.166 178.983 835.166 181.45V183.65C836.766 183.183 838.599 182.816 840.666 182.55C842.799 182.283 845.199 182.15 847.866 182.15C856.866 182.15 863.032 183.683 866.366 186.75C869.699 189.75 871.366 194.216 871.366 200.15V209.75C871.366 212.816 870.932 215.583 870.066 218.05C869.266 220.516 867.766 222.65 865.566 224.45C863.432 226.183 860.499 227.516 856.766 228.45C853.032 229.45 848.299 229.95 842.566 229.95ZM835.166 202.25V208.15C835.166 209.216 835.566 210.116 836.366 210.85C837.166 211.516 838.999 211.85 841.866 211.85C844.866 211.85 846.766 211.516 847.566 210.85C848.366 210.116 848.766 209.216 848.766 208.15V202.25C848.766 201.25 848.366 200.416 847.566 199.75C846.766 199.016 844.866 198.65 841.866 198.65C838.999 198.65 837.166 199.016 836.366 199.75C835.566 200.416 835.166 201.25 835.166 202.25Z" fill="#A10535"/>
</g>
<g filter="url(#filter1_d_914_1837)">
<path d="M120.6 219H57.4C54.8667 219 53 218.467 51.8 217.4C50.7333 216.2 50.2 214.333 50.2 211.8V188.4C50.2 185.867 50.7333 184.067 51.8 183C53 181.8 54.8667 181.2 57.4 181.2H111.2C112.933 181.2 114.2 180.667 115 179.6C115.933 178.4 116.4 177 116.4 175.4C116.4 173.133 115.933 171.467 115 170.4C114.2 169.333 112.933 168.733 111.2 168.6L81.2 164.4C71.8667 163.067 64.3333 160 58.6 155.2C53 150.4 50.2 142.4 50.2 131.2V110.2C50.2 98.8667 53.8667 90.2 61.2 84.2C68.5333 78.0667 78.6667 75 91.6 75H147.6C150.133 75 151.933 75.6 153 76.8C154.2 77.8667 154.8 79.6667 154.8 82.2V106C154.8 108.533 154.2 110.4 153 111.6C151.933 112.667 150.133 113.2 147.6 113.2H101C99.2667 113.2 97.9333 113.8 97 115C96.0667 116.067 95.6 117.467 95.6 119.2C95.6 120.933 96.0667 122.4 97 123.6C97.9333 124.8 99.2667 125.467 101 125.6L130.8 129.6C140.133 130.933 147.667 134 153.4 138.8C159.133 143.6 162 151.6 162 162.8V183.8C162 195.133 158.267 203.867 150.8 210C143.467 216 133.4 219 120.6 219ZM283.878 219H191.078C188.545 219 186.678 218.467 185.478 217.4C184.411 216.2 183.878 214.333 183.878 211.8V82.2C183.878 79.6667 184.411 77.8667 185.478 76.8C186.678 75.6 188.545 75 191.078 75H283.878C286.411 75 288.211 75.6 289.278 76.8C290.478 77.8667 291.078 79.6667 291.078 82.2V105.6C291.078 108.133 290.478 110 289.278 111.2C288.211 112.267 286.411 112.8 283.878 112.8H228.678V128.2H267.678C270.211 128.2 272.011 128.8 273.078 130C274.278 131.067 274.878 132.867 274.878 135.4V156.8C274.878 159.333 274.278 161.2 273.078 162.4C272.011 163.467 270.211 164 267.678 164H228.678V181.2H283.878C286.411 181.2 288.211 181.8 289.278 183C290.478 184.067 291.078 185.867 291.078 188.4V211.8C291.078 214.333 290.478 216.2 289.278 217.4C288.211 218.467 286.411 219 283.878 219ZM351.738 219H321.938C319.404 219 317.538 218.467 316.338 217.4C315.271 216.2 314.738 214.333 314.738 211.8V82.2C314.738 79.6667 315.271 77.8667 316.338 76.8C317.538 75.6 319.404 75 321.938 75H354.138C356.271 75 358.004 75.4667 359.338 76.4C360.804 77.3333 362.138 78.8667 363.338 81L381.338 113.6C382.004 114.8 382.538 115.667 382.938 116.2C383.471 116.733 384.138 117 384.938 117H386.738C387.538 117 388.138 116.733 388.538 116.2C389.071 115.667 389.671 114.8 390.338 113.6L408.138 81C409.338 78.8667 410.604 77.3333 411.938 76.4C413.404 75.4667 415.204 75 417.338 75H449.738C452.271 75 454.071 75.6 455.138 76.8C456.338 77.8667 456.938 79.6667 456.938 82.2V211.8C456.938 214.333 456.338 216.2 455.138 217.4C454.071 218.467 452.271 219 449.738 219H418.938C416.404 219 414.538 218.467 413.338 217.4C412.271 216.2 411.738 214.333 411.738 211.8V141.4L399.938 163.2C398.738 165.467 397.271 167.133 395.538 168.2C393.938 169.133 391.871 169.6 389.338 169.6H381.338C378.804 169.6 376.671 169.133 374.938 168.2C373.338 167.133 371.938 165.467 370.738 163.2L358.938 141.4V211.8C358.938 214.333 358.338 216.2 357.138 217.4C356.071 218.467 354.271 219 351.738 219ZM536.664 117L527.264 147.4H558.664L549.264 117C548.731 115.8 548.131 114.933 547.464 114.4C546.931 113.867 546.264 113.6 545.464 113.6H540.464C539.664 113.6 538.931 113.867 538.264 114.4C537.731 114.933 537.197 115.8 536.664 117ZM525.264 211.8C525.264 214.333 524.664 216.2 523.464 217.4C522.397 218.467 520.597 219 518.064 219H488.664C486.131 219 484.264 218.467 483.064 217.4C481.997 216.2 481.464 214.333 481.464 211.8V159C481.464 155 482.064 150.4 483.264 145.2C484.597 140 486.597 133.933 489.264 127L506.664 81.6C507.464 79.3333 508.664 77.6667 510.264 76.6C511.997 75.5333 514.197 75 516.864 75H570.664C573.197 75 575.264 75.5333 576.864 76.6C578.597 77.6667 579.864 79.3333 580.664 81.6L598.064 127C600.731 133.933 602.664 140 603.864 145.2C605.197 150.4 605.864 155 605.864 159V211.8C605.864 214.333 605.264 216.2 604.064 217.4C602.997 218.467 601.197 219 598.664 219H568.464C565.797 219 563.797 218.467 562.464 217.4C561.264 216.2 560.664 214.333 560.664 211.8V183.8H525.264V211.8ZM726.358 219H677.558C660.891 219 648.491 215.667 640.358 209C632.358 202.333 628.358 192.067 628.358 178.2V116C628.358 102.133 632.358 91.8667 640.358 85.2C648.491 78.4 660.891 75 677.558 75H726.358C728.891 75 730.691 75.6 731.758 76.8C732.958 77.8667 733.558 79.6667 733.558 82.2V106.4C733.558 108.933 732.958 110.8 731.758 112C730.691 113.067 728.891 113.6 726.358 113.6H686.158C682.024 113.6 678.958 114.467 676.958 116.2C674.958 117.8 673.958 120.267 673.958 123.6V171.2C673.958 174.533 674.958 177 676.958 178.6C678.958 180.067 682.024 180.8 686.158 180.8H726.358C728.891 180.8 730.691 181.4 731.758 182.6C732.958 183.667 733.558 185.467 733.558 188V211.8C733.558 214.333 732.958 216.2 731.758 217.4C730.691 218.467 728.891 219 726.358 219Z" fill="#A10535"/>
</g>
<defs>
<filter id="filter0_d_914_1837" x="741.238" y="75.9498" width="134.767" height="162" filterUnits="userSpaceOnUse" color-interpolation-filters="sRGB">
<feFlood flood-opacity="0" result="BackgroundImageFix"/>
<feColorMatrix in="SourceAlpha" type="matrix" values="0 0 0 0 0 0 0 0 0 0 0 0 0 0 0 0 0 0 127 0" result="hardAlpha"/>
<feOffset dy="4"/>
<feGaussianBlur stdDeviation="2"/>
<feComposite in2="hardAlpha" operator="out"/>
<feColorMatrix type="matrix" values="0 0 0 0 0 0 0 0 0 0 0 0 0 0 0 0 0 0 0.25 0"/>
<feBlend mode="normal" in2="BackgroundImageFix" result="effect1_dropShadow_914_1837"/>
<feBlend mode="normal" in="SourceGraphic" in2="effect1_dropShadow_914_1837" result="shape"/>
</filter>
<filter id="filter1_d_914_1837" x="43.2" y="72" width="697.358" height="158" filterUnits="userSpaceOnUse" color-interpolation-filters="sRGB">
<feFlood flood-opacity="0" result="BackgroundImageFix"/>
<feColorMatrix in="SourceAlpha" type="matrix" values="0 0 0 0 0 0 0 0 0 0 0 0 0 0 0 0 0 0 127 0" result="hardAlpha"/>
<feOffset dy="4"/>
<feGaussianBlur stdDeviation="3.5"/>
<feComposite in2="hardAlpha" operator="out"/>
<feColorMatrix type="matrix" values="0 0 0 0 0.145098 0 0 0 0 0.145098 0 0 0 0 0.145098 0 0 0 1 0"/>
<feBlend mode="normal" in2="BackgroundImageFix" result="effect1_dropShadow_914_1837"/>
<feBlend mode="normal" in="SourceGraphic" in2="effect1_dropShadow_914_1837" result="shape"/>
</filter>
</defs>
</svg>
