<svg width="1440" height="573" viewBox="0 0 1440 573" fill="none" xmlns="http://www.w3.org/2000/svg">
<path fill-rule="evenodd" clip-rule="evenodd" d="M4224 38.2189L4139.49 104.189C4054.99 166.037 3885.97 297.979 3716.96 392.811C3555.63 491.768 3386.62 557.738 3217.6 557.738C3048.59 557.738 2879.58 491.768 2710.56 359.826C2549.23 232.008 2380.22 38.2188 2211.21 5.23344C2042.19 -27.7519 1873.18 104.19 1704.17 149.545C1542.83 199.023 1373.82 166.037 1204.81 199.023C1035.8 232.008 866.782 263.007 697.769 279.5C536.438 291.869 367.425 297.978 198.412 215.515C29.3984 133.052 -139.615 207.485 -308.628 207.485C-469.959 207.485 -638.972 133.052 -807.985 264.993C-976.999 392.811 -1146.01 557.738 -1315.02 636.079C-1476.36 718.542 -1645.37 718.542 -1729.88 718.542C-1645.37 718.542 -1476.36 718.542 -1315.02 718.542C-1146.01 718.542 -976.999 718.542 -807.985 718.542C-638.972 718.542 -469.959 718.542 -308.628 718.542C-139.615 718.542 29.3984 718.542 198.412 718.542C367.425 718.542 536.438 718.542 697.769 718.542C866.782 718.542 1035.8 718.542 1204.81 718.542C1373.82 718.542 1542.83 718.542 1704.17 718.542C1873.18 718.542 2042.19 718.542 2211.21 718.542C2380.22 718.542 2549.23 718.542 2710.56 718.542C2879.58 718.542 3048.59 718.542 3217.6 718.542C3386.62 718.542 3555.63 718.542 3716.96 718.542C3885.97 718.542 4054.99 718.542 4139.49 718.542H4224V38.2189Z" fill="#A10535"/>
<path fill-rule="evenodd" clip-rule="evenodd" d="M-587 84.7584L-519.49 126.761C-451.769 168.764 -316.748 252.989 -181.516 221.268C-46.4946 189.766 88.7368 105.76 223.758 84.7586C358.99 63.7571 494.01 105.76 629.242 137.262C764.263 168.764 899.495 126.761 1034.52 105.76C1169.75 84.7584 1304.77 84.7584 1372.49 84.7584H1440V400H1372.49C1304.77 400 1169.75 400 1034.52 400C899.495 400 764.263 400 629.242 400C494.01 400 358.99 400 223.758 400C88.7368 400 -46.4946 400 -181.516 400C-316.748 400 -451.769 400 -519.49 400H-587V84.7584Z" fill="#A10535"/>
</svg>
