<svg width="1440" height="535" viewBox="0 0 1440 535" fill="none" xmlns="http://www.w3.org/2000/svg">
<path fill-rule="evenodd" clip-rule="evenodd" d="M4224 0L4139.49 65.9706C4054.99 127.818 3885.97 259.76 3716.96 354.593C3555.63 453.549 3386.62 519.519 3217.6 519.519C3048.59 519.519 2879.58 453.549 2710.56 321.607C2549.23 193.789 2288.01 354.593 2119 321.607C1949.99 288.622 1873.18 65.9707 1704.17 111.326C1542.84 160.804 1373.82 127.818 1204.81 160.804C1035.8 193.789 866.782 224.788 697.769 241.281C536.438 253.651 367.425 259.76 198.412 177.296C29.3984 94.8327 -139.615 169.266 -308.628 169.266C-469.959 169.266 -638.972 94.8328 -807.985 226.774C-976.999 354.592 -1146.01 519.519 -1315.02 597.86C-1476.36 680.323 -1645.37 680.323 -1729.88 680.323C-1645.37 680.323 -1476.36 680.323 -1315.02 680.323C-1146.01 680.323 -976.999 680.323 -807.985 680.323C-638.972 680.323 -469.959 680.323 -308.628 680.323C-139.615 680.323 29.3984 680.323 198.412 680.323C367.425 680.323 536.438 680.323 697.769 680.323C866.782 680.323 1035.8 680.323 1204.81 680.323C1373.82 680.323 1542.84 680.323 1704.17 680.323C1873.18 680.323 2042.19 680.323 2211.21 680.323C2380.22 680.323 2549.23 680.323 2710.56 680.323C2879.58 680.323 3048.59 680.323 3217.6 680.323C3386.62 680.323 3555.63 680.323 3716.96 680.323C3885.97 680.323 4054.99 680.323 4139.49 680.323H4224V0Z" fill="#A10535"/>
<path fill-rule="evenodd" clip-rule="evenodd" d="M-587 46.5395L-519.49 88.5425C-451.768 130.546 -316.747 143.047 -181.516 111.326C-46.4948 79.8233 88.737 67.5412 223.758 46.5397C358.99 25.5382 494.01 67.541 629.242 99.0433C764.263 130.546 899.495 88.5425 1034.52 67.541C1169.75 46.5395 1304.77 46.5395 1372.49 46.5395H1440V361.781H1372.49C1304.77 361.781 1169.75 361.781 1034.52 361.781C899.495 361.781 764.263 361.781 629.242 361.781C494.01 361.781 358.99 361.781 223.758 361.781C88.737 361.781 -46.4948 361.781 -181.516 361.781C-316.747 361.781 -451.768 361.781 -519.49 361.781H-587V46.5395Z" fill="#A10535"/>
</svg>
