<svg width="1440" height="170" viewBox="0 0 1440 170" fill="none" xmlns="http://www.w3.org/2000/svg">
<path fill-rule="evenodd" clip-rule="evenodd" d="M2670 9.30816L2628.55 25.3752C2587.09 40.4381 2504.19 72.5723 2421.28 95.6687C2342.15 119.769 2259.24 135.836 2176.33 135.836C2093.43 135.836 2010.52 119.769 1927.62 87.6352C1848.48 56.5052 1765.57 9.30815 1682.67 1.27461C1599.76 -6.75894 1516.85 25.3752 1433.95 36.4214C1354.81 48.4717 1271.91 40.4381 1189 48.4717C1106.09 56.5052 1023.19 80.6059 940.282 84.6226C861.145 87.6352 778.239 72.5723 695.333 52.4885C612.428 32.4046 529.522 9.30816 446.616 9.30816C367.479 9.30816 284.573 32.4046 201.667 64.5388C118.761 95.6687 35.8551 135.836 -47.0508 154.916C-126.188 175 -209.094 175 -250.547 175C-209.094 175 -126.188 175 -47.0508 175C35.8551 175 118.761 175 201.667 175C284.573 175 367.479 175 446.616 175C529.522 175 612.428 175 695.333 175C778.239 175 861.145 175 940.282 175C1023.19 175 1106.09 175 1189 175C1271.91 175 1354.81 175 1433.95 175C1516.85 175 1599.76 175 1682.67 175C1765.57 175 1848.48 175 1927.62 175C2010.52 175 2093.43 175 2176.33 175C2259.24 175 2342.15 175 2421.28 175C2504.19 175 2587.09 175 2628.55 175H2670V9.30816Z" fill="#730835"/>
</svg>
