<svg width="1440" height="175" viewBox="0 0 1440 175" fill="none" xmlns="http://www.w3.org/2000/svg">
<path fill-rule="evenodd" clip-rule="evenodd" d="M-290 165.692L-248.547 149.625C-207.094 134.562 -124.188 102.428 -41.2825 79.3313C37.8549 55.2306 120.761 39.1635 203.667 39.1635C286.573 39.1635 369.478 55.2306 452.384 87.3648C531.522 118.495 614.427 165.692 697.333 173.725C780.239 181.759 863.145 149.625 946.051 138.579C1025.19 126.528 1108.09 134.562 1191 126.528C1273.91 118.495 1356.81 94.3941 1439.72 90.3774C1518.85 87.3648 1601.76 102.428 1684.67 122.512C1767.57 142.595 1850.48 165.692 1933.38 165.692C2012.52 165.692 2095.43 142.595 2178.33 110.461C2261.24 79.3313 2344.14 39.1635 2427.05 20.0839C2506.19 0 2589.09 0 2630.55 0C2589.09 0 2506.19 0 2427.05 0C2344.14 0 2261.24 0 2178.33 0C2095.43 0 2012.52 0 1933.38 0C1850.48 0 1767.57 0 1684.67 0C1601.76 0 1518.85 0 1439.72 0C1356.81 0 1273.91 0 1191 0C1108.09 0 1025.19 0 946.051 0C863.145 0 780.239 0 697.333 0C614.427 0 531.522 0 452.384 0C369.478 0 286.573 0 203.667 0C120.761 0 37.8549 0 -41.2825 0C-124.188 0 -207.094 0 -248.547 0H-290V165.692Z" fill="#730835"/>
</svg>
